<svg width="1059" height="117" viewBox="0 0 1059 117" fill="none" xmlns="http://www.w3.org/2000/svg">
<path d="M66.4286 47.1419L67.383 46.8432L66.7856 44.9345L65.8313 45.2332L66.4286 47.1419ZM80.2195 40.9914L79.2558 41.2584L79.7897 43.1858L80.7534 42.9188L80.2195 40.9914ZM95.2028 39.1656L96.1745 38.9296L95.7026 36.9861L94.7309 37.2221L95.2028 39.1656ZM109.361 33.9095L108.382 34.1154L108.794 36.0725L109.772 35.8667L109.361 33.9095ZM124.427 33.0122L125.411 32.8355L125.058 30.867L124.073 31.0437L124.427 33.0122ZM138.876 28.6045L137.887 28.7532L138.184 30.7309L139.173 30.5823L138.876 28.6045ZM153.966 28.5651L154.958 28.4433L154.715 26.4582L153.722 26.58L153.966 28.5651ZM168.638 24.947L167.642 25.0431L167.835 27.0338L168.83 26.9377L168.638 24.947ZM183.706 25.687L184.703 25.6154L184.56 23.6205L183.562 23.6922L183.706 25.687ZM198.542 22.7921L197.544 22.8406L197.64 24.8382L198.639 24.7897L198.542 22.7921ZM213.557 24.2308L214.556 24.2042L214.503 22.2049L213.504 22.2315L213.557 24.2308ZM228.509 21.9889L227.509 21.9948L227.521 23.9948L228.521 23.9889L228.509 21.9889ZM243.45 24.0468L244.45 24.0602L244.477 22.0604L243.477 22.0469L243.45 24.0468ZM258.479 22.3875L257.479 22.3558L257.416 24.3548L258.415 24.3865L258.479 22.3875ZM273.336 24.9888L274.335 25.0376L274.432 23.0399L273.433 22.9912L273.336 24.9888ZM288.411 23.8434L287.413 23.7788L287.283 25.7746L288.281 25.8393L288.411 23.8434ZM303.18 26.9175L304.177 26.9969L304.336 25.0033L303.339 24.9238L303.18 26.9175ZM318.279 26.2203L317.284 26.1271L317.097 28.1183L318.093 28.2116L318.279 26.2203ZM332.963 29.7017L333.958 29.8076L334.17 27.8189L333.175 27.7129L332.963 29.7017ZM348.07 29.3909L347.077 29.2731L346.842 31.2592L347.835 31.3769L348.07 29.3909ZM362.673 33.2193L363.665 33.3479L363.922 31.3644L362.93 31.2359L362.673 33.2193ZM377.779 33.2369L376.788 33.0985L376.512 35.0792L377.502 35.2176L377.779 33.2369ZM392.308 37.3568L393.297 37.5043L393.592 35.5261L392.603 35.3787L392.308 37.3568ZM407.406 37.6486L406.419 37.4931L406.107 39.4687L407.095 39.6243L407.406 37.6486ZM421.87 42.0084L422.857 42.1712L423.183 40.198L422.196 40.0351L421.87 42.0084ZM436.96 42.5236L435.974 42.3542L435.635 44.3253L436.621 44.4947L436.96 42.5236ZM451.367 47.0746L452.351 47.2497L452.702 45.2806L451.717 45.1055L451.367 47.0746ZM466.448 47.7653L465.465 47.5852L465.104 49.5525L466.088 49.7326L466.448 47.7653ZM480.809 52.4616L481.791 52.646L482.16 50.6802L481.177 50.4959L480.809 52.4616ZM495.885 53.2821L494.903 53.0943L494.527 55.0587L495.509 55.2465L495.885 53.2821ZM510.208 58.0795L511.19 58.2701L511.571 56.3068L510.589 56.1162L510.208 58.0795ZM525.284 58.9855L524.302 58.7929L523.917 60.7555L524.898 60.9481L525.284 58.9855ZM539.58 63.8411L540.561 64.035L540.949 62.073L539.968 61.879L539.58 63.8411ZM554.66 64.789L553.679 64.5945L553.29 66.5563L554.271 66.7508L554.66 64.789ZM568.946 69.6613L569.927 69.8557L570.316 67.8939L569.335 67.6994L568.946 69.6613ZM584.031 70.6066L583.049 70.413L582.662 72.3751L583.643 72.5687L584.031 70.6066ZM598.323 75.454L599.304 75.646L599.688 73.6832L598.707 73.4912L598.323 75.454ZM613.411 76.3512L612.43 76.1615L612.05 78.1252L613.032 78.3149L613.411 76.3512ZM627.727 81.1312L628.709 81.3178L629.082 79.3529L628.1 79.1663L627.727 81.1312ZM642.819 81.9336L641.836 81.7508L641.471 83.7171L642.454 83.8999L642.819 81.9336ZM657.174 86.6013L658.158 86.7794L658.514 84.8113L657.53 84.6332L657.174 86.6013ZM672.27 87.2599L671.285 87.0873L670.94 89.0573L671.925 89.2299L672.27 87.2599ZM686.679 91.7676L687.665 91.9339L687.998 89.9617L687.012 89.7954L686.679 91.7676ZM701.779 92.2308L700.792 92.0718L700.474 94.0463L701.461 94.2053L701.779 92.2308ZM716.256 96.5266L717.244 96.6774L717.546 94.7003L716.557 94.5495L716.256 96.5266ZM731.357 96.7387L730.367 96.5971L730.084 98.5769L731.074 98.7186L731.357 96.7387ZM745.914 100.766L746.906 100.897L747.169 98.9145L746.177 98.7831L745.914 100.766ZM761.015 100.666L760.022 100.546L759.781 102.532L760.774 102.652L761.015 100.666ZM775.66 104.361L776.655 104.469L776.87 102.481L775.876 102.373L775.66 104.361ZM790.753 103.884L789.758 103.79L789.569 105.781L790.565 105.875L790.753 103.884ZM805.493 107.176L806.49 107.255L806.648 105.262L805.651 105.182L805.493 107.176ZM820.568 106.248L819.569 106.185L819.443 108.181L820.441 108.244L820.568 106.248ZM835.401 109.058L836.4 109.104L836.491 107.106L835.492 107.06L835.401 109.058ZM850.439 107.598L849.44 107.572L849.387 109.571L850.387 109.598L850.439 107.598ZM865.36 109.839L866.36 109.844L866.371 107.844L865.371 107.839L865.36 109.839ZM880.334 107.758L879.334 107.775L879.367 109.775L880.367 109.758L880.334 107.758ZM895.327 109.332L896.326 109.291L896.245 107.293L895.246 107.333L895.327 109.332ZM910.194 106.535L909.196 106.602L909.328 108.597L910.326 108.531L910.194 106.535ZM925.234 107.337L926.23 107.243L926.042 105.252L925.047 105.346L925.234 107.337ZM939.934 103.726L938.941 103.849L939.187 105.833L940.18 105.71L939.934 103.726ZM955.001 103.641L955.989 103.487L955.681 101.511L954.693 101.665L955.001 103.641ZM969.435 99.1199L968.453 99.3065L968.826 101.271L969.808 101.085L969.435 99.1199ZM984.48 98.0335L985.455 97.8126L985.014 95.862L984.038 96.0829L984.48 98.0335ZM998.543 92.5185L997.577 92.7751L998.09 94.7081L999.057 94.4515L998.543 92.5185ZM59.3148 49.4343C61.6806 48.6498 64.0519 47.8857 66.4286 47.1419L65.8313 45.2332C63.4438 45.9804 61.0618 46.7479 58.6852 47.536L59.3148 49.4343ZM80.7534 42.9188C85.5492 41.5903 90.3659 40.3401 95.2028 39.1656L94.7309 37.2221C89.8736 38.4015 85.0362 39.6571 80.2195 40.9914L80.7534 42.9188ZM109.772 35.8667C114.638 34.8432 119.523 33.8926 124.427 33.0122L124.073 31.0437C119.151 31.9275 114.246 32.8819 109.361 33.9095L109.772 35.8667ZM139.173 30.5823C144.087 29.8437 149.018 29.1722 153.966 28.5651L153.722 26.58C148.757 27.1892 143.808 27.8632 138.876 28.6045L139.173 30.5823ZM168.83 26.9377C173.773 26.4606 178.732 26.0445 183.706 25.687L183.562 23.6922C178.573 24.0508 173.598 24.4682 168.638 24.947L168.83 26.9377ZM198.639 24.7897C203.598 24.549 208.571 24.3635 213.557 24.2308L213.504 22.2315C208.503 22.3646 203.516 22.5506 198.542 22.7921L198.639 24.7897ZM228.521 23.9889C233.485 23.9595 238.462 23.9795 243.45 24.0468L243.477 22.0469C238.476 21.9795 233.487 21.9594 228.509 21.9889L228.521 23.9889ZM258.415 24.3865C263.378 24.544 268.352 24.7456 273.336 24.9888L273.433 22.9912C268.439 22.7474 263.453 22.5454 258.479 22.3875L258.415 24.3865ZM288.281 25.8393C293.239 26.1606 298.205 26.5207 303.18 26.9175L303.339 24.9238C298.355 24.5263 293.378 24.1655 288.411 23.8434L288.281 25.8393ZM318.093 28.2116C323.042 28.6752 327.999 29.1726 332.963 29.7017L333.175 27.7129C328.203 27.183 323.237 26.6847 318.279 26.2203L318.093 28.2116ZM347.835 31.3769C352.775 31.9627 357.721 32.5775 362.673 33.2193L362.93 31.2359C357.972 30.5932 353.018 29.9775 348.07 29.3909L347.835 31.3769ZM377.502 35.2176C382.433 35.9068 387.368 36.6205 392.308 37.3568L392.603 35.3787C387.657 34.6416 382.716 33.9269 377.779 33.2369L377.502 35.2176ZM407.095 39.6243C412.017 40.3994 416.942 41.1947 421.87 42.0084L422.196 40.0351C417.263 39.2207 412.333 38.4245 407.406 37.6486L407.095 39.6243ZM436.621 44.4947C441.534 45.3392 446.45 46.1999 451.367 47.0746L451.717 45.1055C446.796 44.2301 441.877 43.3688 436.96 42.5236L436.621 44.4947ZM466.088 49.7326C470.994 50.6309 475.901 51.5413 480.809 52.4616L481.177 50.4959C476.267 49.5751 471.357 48.6642 466.448 47.7653L466.088 49.7326ZM495.509 55.2465C500.409 56.1835 505.309 57.1285 510.208 58.0795L510.589 56.1162C505.689 55.1648 500.787 54.2195 495.885 53.2821L495.509 55.2465ZM524.898 60.9481C529.794 61.909 534.688 62.874 539.58 63.8411L539.968 61.879C535.075 60.9118 530.18 59.9467 525.284 58.9855L524.898 60.9481ZM554.271 66.7508C559.166 67.7215 564.058 68.6923 568.946 69.6613L569.335 67.6994C564.447 66.7305 559.555 65.7598 554.66 64.789L554.271 66.7508ZM583.643 72.5687C588.541 73.535 593.434 74.4975 598.323 75.454L598.707 73.4912C593.819 72.5349 588.927 71.5727 584.031 70.6066L583.643 72.5687ZM613.032 78.3149C617.936 79.2623 622.834 80.2018 627.727 81.1312L628.1 79.1663C623.21 78.2373 618.313 77.2983 613.411 76.3512L613.032 78.3149ZM642.454 83.8999C647.367 84.8132 652.274 85.7144 657.174 86.6013L657.53 84.6332C652.634 83.747 647.73 82.8464 642.819 81.9336L642.454 83.8999ZM671.925 89.2299C676.851 90.0932 681.769 90.9398 686.679 91.7676L687.012 89.7954C682.106 88.9684 677.192 88.1225 672.27 87.2599L671.925 89.2299ZM701.461 94.2053C706.402 95.0012 711.334 95.7757 716.256 96.5266L716.557 94.5495C711.641 93.7994 706.715 93.0258 701.779 92.2308L701.461 94.2053ZM731.074 98.7186C736.032 99.4281 740.979 100.111 745.914 100.766L746.177 98.7831C741.249 98.1295 736.309 97.4473 731.357 96.7387L731.074 98.7186ZM760.774 102.652C765.749 103.254 770.711 103.825 775.66 104.361L775.876 102.373C770.936 101.837 765.982 101.268 761.015 100.666L760.774 102.652ZM790.565 105.875C795.556 106.347 800.532 106.782 805.493 107.176L805.651 105.182C800.701 104.789 795.734 104.355 790.753 103.884L790.565 105.875ZM820.441 108.244C825.445 108.56 830.432 108.832 835.401 109.058L835.492 107.06C830.534 106.835 825.559 106.563 820.568 106.248L820.441 108.244ZM850.387 109.598C855.397 109.729 860.388 109.811 865.36 109.839L865.371 107.839C860.414 107.811 855.436 107.73 850.439 107.598L850.387 109.598ZM880.367 109.758C885.375 109.674 890.362 109.533 895.327 109.332L895.246 107.333C890.297 107.534 885.326 107.675 880.334 107.758L880.367 109.758ZM910.326 108.531C915.319 108.199 920.289 107.802 925.234 107.337L925.047 105.346C920.12 105.809 915.169 106.205 910.194 106.535L910.326 108.531ZM940.18 105.71C945.146 105.095 950.087 104.406 955.001 103.641L954.693 101.665C949.8 102.427 944.88 103.113 939.934 103.726L940.18 105.71ZM969.808 101.085C974.728 100.15 979.619 99.1343 984.48 98.0335L984.038 96.0829C979.2 97.1784 974.332 98.1897 969.435 99.1199L969.808 101.085ZM999.057 94.4515C1001.47 93.8106 1003.88 93.1474 1006.27 92.4615L1005.73 90.5386C1003.34 91.2209 1000.95 91.8808 998.543 92.5185L999.057 94.4515Z" fill="#162B29"/>
<path d="M50 23C47.0837 23.0034 44.2878 24.1635 42.2256 26.2256C40.1635 28.2878 39.0035 31.0837 39 34C38.9965 36.3832 39.775 38.7018 41.216 40.6C41.216 40.6 41.516 40.995 41.565 41.052L50 51L58.439 41.047C58.483 40.994 58.784 40.6 58.784 40.6L58.785 40.597C60.2253 38.6996 61.0034 36.3821 61 34C60.9966 31.0837 59.8365 28.2878 57.7744 26.2256C55.7122 24.1635 52.9163 23.0034 50 23ZM50 38C49.2089 38 48.4355 37.7654 47.7777 37.3259C47.1199 36.8864 46.6072 36.2616 46.3045 35.5307C46.0017 34.7998 45.9225 33.9956 46.0769 33.2196C46.2312 32.4437 46.6122 31.731 47.1716 31.1716C47.731 30.6122 48.4437 30.2312 49.2197 30.0769C49.9956 29.9225 50.7998 30.0017 51.5307 30.3045C52.2616 30.6072 52.8864 31.1199 53.3259 31.7777C53.7654 32.4355 54 33.2089 54 34C53.9987 35.0605 53.5768 36.0771 52.827 36.827C52.0771 37.5768 51.0605 37.9987 50 38Z" fill="#162B29"/>
<path d="M5.62598 15L2.74805 6.65332H2.68652C2.7002 6.84017 2.71615 7.09538 2.73438 7.41895C2.7526 7.74251 2.76855 8.08887 2.78223 8.45801C2.7959 8.82715 2.80273 9.18034 2.80273 9.51758V15H1.3125V5.00586H3.61621L6.38477 12.9834H6.42578L9.29004 5.00586H11.5869V15H10.0215V9.43555C10.0215 9.13021 10.026 8.7998 10.0352 8.44434C10.0488 8.08887 10.0625 7.75163 10.0762 7.43262C10.0944 7.11361 10.1081 6.8584 10.1172 6.66699H10.0625L7.0752 15H5.62598ZM13.6131 7.43262H15.3631L16.9148 11.7529C16.9832 11.9489 17.0447 12.1426 17.0994 12.334C17.1587 12.5208 17.2088 12.7054 17.2498 12.8877C17.2954 13.07 17.3318 13.2523 17.3592 13.4346H17.4002C17.4458 13.1976 17.5096 12.9333 17.5916 12.6416C17.6782 12.3454 17.7739 12.0492 17.8787 11.7529L19.3689 7.43262H21.0984L17.8514 16.0391C17.6645 16.5312 17.4344 16.9505 17.1609 17.2969C16.8921 17.6478 16.573 17.9121 16.2039 18.0898C15.8348 18.2721 15.4132 18.3633 14.9393 18.3633C14.7114 18.3633 14.5132 18.3496 14.3445 18.3223C14.1759 18.2995 14.0324 18.2744 13.9139 18.2471V16.9619C14.0096 16.9847 14.1303 17.0052 14.2762 17.0234C14.422 17.0417 14.5724 17.0508 14.7273 17.0508C15.0145 17.0508 15.2628 16.9938 15.4725 16.8799C15.6821 16.766 15.8598 16.6042 16.0057 16.3945C16.1515 16.1895 16.2723 15.9548 16.368 15.6904L16.6346 14.9795L13.6131 7.43262ZM26.8297 7.28906C27.7275 7.28906 28.4475 7.61719 28.9898 8.27344C29.5367 8.92969 29.8102 9.90495 29.8102 11.1992C29.8102 12.056 29.6826 12.7783 29.4273 13.3662C29.1767 13.9495 28.8235 14.3916 28.3678 14.6924C27.9166 14.9886 27.3902 15.1367 26.7887 15.1367C26.4059 15.1367 26.0732 15.0866 25.7906 14.9863C25.5081 14.8861 25.2665 14.7562 25.066 14.5967C24.8655 14.4326 24.6969 14.2549 24.5602 14.0635H24.4645C24.4872 14.2458 24.5077 14.4486 24.526 14.6719C24.5488 14.8906 24.5602 15.0911 24.5602 15.2734V18.3564H22.9469V7.43262H24.2594L24.485 8.47852H24.5602C24.7014 8.26432 24.8723 8.06608 25.0729 7.88379C25.2779 7.7015 25.524 7.55794 25.8111 7.45312C26.1028 7.34375 26.4423 7.28906 26.8297 7.28906ZM26.399 8.60156C25.957 8.60156 25.6015 8.69043 25.3326 8.86816C25.0683 9.04134 24.8746 9.30339 24.7516 9.6543C24.6331 10.0052 24.5693 10.445 24.5602 10.9736V11.1992C24.5602 11.7598 24.6171 12.236 24.7311 12.6279C24.8495 13.0153 25.0432 13.3115 25.3121 13.5166C25.5855 13.7171 25.9547 13.8174 26.4195 13.8174C26.8115 13.8174 27.135 13.7103 27.3902 13.4961C27.65 13.2819 27.8437 12.9766 27.9713 12.5801C28.0989 12.1836 28.1627 11.7165 28.1627 11.1787C28.1627 10.363 28.0169 9.72949 27.7252 9.27832C27.4381 8.82715 26.996 8.60156 26.399 8.60156ZM41.14 7.43262V15H39.6498V10.6797C39.6498 10.3971 39.6566 10.1146 39.6703 9.83203C39.684 9.54948 39.7022 9.2806 39.725 9.02539H39.684L37.3803 15H36.1156L33.8324 9.01855H33.7846C33.8074 9.27832 33.8233 9.5472 33.8324 9.8252C33.8461 10.1032 33.8529 10.404 33.8529 10.7275V15H32.3627V7.43262H34.6049L36.765 13.0859L38.9594 7.43262H41.14ZM47.0832 7.28906C48.0402 7.28906 48.7626 7.50098 49.2502 7.9248C49.7424 8.34863 49.9885 9.00944 49.9885 9.90723V15H48.8469L48.5393 13.9268H48.4846C48.2704 14.2002 48.0493 14.4258 47.8215 14.6035C47.5936 14.7812 47.3293 14.9134 47.0285 15C46.7323 15.0911 46.37 15.1367 45.9416 15.1367C45.4904 15.1367 45.0871 15.0547 44.7316 14.8906C44.3762 14.722 44.0959 14.4668 43.8908 14.125C43.6857 13.7832 43.5832 13.3503 43.5832 12.8262C43.5832 12.0469 43.8726 11.4613 44.4514 11.0693C45.0347 10.6774 45.9143 10.4609 47.09 10.4199L48.4025 10.3721V9.97559C48.4025 9.4515 48.2795 9.0778 48.0334 8.85449C47.7919 8.63118 47.4501 8.51953 47.008 8.51953C46.6298 8.51953 46.2629 8.57422 45.9074 8.68359C45.552 8.79297 45.2056 8.92741 44.8684 9.08691L44.3488 7.95215C44.718 7.75618 45.1372 7.59668 45.6066 7.47363C46.0806 7.35059 46.5728 7.28906 47.0832 7.28906ZM48.3957 11.3838L47.4182 11.418C46.6161 11.4453 46.0533 11.582 45.7297 11.8281C45.4061 12.0742 45.2443 12.4115 45.2443 12.8398C45.2443 13.2135 45.356 13.487 45.5793 13.6602C45.8026 13.8288 46.0965 13.9131 46.4611 13.9131C47.0171 13.9131 47.4774 13.7559 47.842 13.4414C48.2111 13.1224 48.3957 12.6553 48.3957 12.04V11.3838ZM54.5508 7.43262V10.4746H58.0918V7.43262H59.7051V15H58.0918V11.7324H54.5508V15H52.9375V7.43262H54.5508ZM65.7508 15.1367C65.0353 15.1367 64.4155 14.9977 63.8914 14.7197C63.3673 14.4417 62.964 14.0156 62.6814 13.4414C62.3989 12.8672 62.2576 12.138 62.2576 11.2539C62.2576 10.3333 62.4126 9.58138 62.7225 8.99805C63.0324 8.41471 63.4607 7.98405 64.0076 7.70605C64.5591 7.42806 65.1902 7.28906 65.9012 7.28906C66.3523 7.28906 66.7602 7.33464 67.1248 7.42578C67.4939 7.51237 67.8061 7.61947 68.0613 7.74707L67.5828 9.03223C67.3048 8.91829 67.02 8.82259 66.7283 8.74512C66.4367 8.66764 66.1564 8.62891 65.8875 8.62891C65.4454 8.62891 65.0763 8.72689 64.7801 8.92285C64.4884 9.11882 64.2697 9.41048 64.1238 9.79785C63.9826 10.1852 63.9119 10.666 63.9119 11.2402C63.9119 11.7962 63.9848 12.2656 64.1307 12.6484C64.2765 13.0267 64.493 13.3138 64.7801 13.5098C65.0672 13.7012 65.4204 13.7969 65.8396 13.7969C66.2544 13.7969 66.6258 13.7467 66.9539 13.6465C67.282 13.5462 67.5919 13.4163 67.8836 13.2568V14.6514C67.5965 14.8154 67.2889 14.9362 66.9607 15.0137C66.6326 15.0957 66.2293 15.1367 65.7508 15.1367ZM75.0504 7.43262H76.8209L73.69 11.0693L77.0875 15H75.235L71.9742 11.1582V15H70.3609V7.43262H71.9742V11.1035L75.0504 7.43262Z" fill="#162B29"/>
<path d="M1023 68C1020.08 68.0034 1017.29 69.1635 1015.23 71.2256C1013.16 73.2878 1012 76.0837 1012 79C1012 81.3832 1012.77 83.7018 1014.22 85.6C1014.22 85.6 1014.52 85.995 1014.57 86.052L1023 96L1031.44 86.047C1031.48 85.994 1031.78 85.6 1031.78 85.6L1031.79 85.597C1033.23 83.6996 1034 81.3821 1034 79C1034 76.0837 1032.84 73.2878 1030.77 71.2256C1028.71 69.1635 1025.92 68.0034 1023 68ZM1023 83C1022.21 83 1021.44 82.7654 1020.78 82.3259C1020.12 81.8864 1019.61 81.2616 1019.3 80.5307C1019 79.7998 1018.92 78.9956 1019.08 78.2196C1019.23 77.4437 1019.61 76.731 1020.17 76.1716C1020.73 75.6122 1021.44 75.2312 1022.22 75.0769C1023 74.9225 1023.8 75.0017 1024.53 75.3045C1025.26 75.6072 1025.89 76.1199 1026.33 76.7777C1026.77 77.4355 1027 78.2089 1027 79C1027 80.0605 1026.58 81.0771 1025.83 81.827C1025.08 82.5768 1024.06 82.9987 1023 83Z" fill="#162B29"/>
<path d="M999.571 104.257C999.093 104.257 998.664 104.343 998.286 104.517C997.912 104.69 997.596 104.94 997.336 105.269C997.076 105.592 996.878 105.986 996.741 106.451C996.604 106.911 996.536 107.431 996.536 108.01C996.536 108.785 996.646 109.452 996.864 110.013C997.083 110.569 997.416 110.997 997.862 111.298C998.309 111.594 998.874 111.742 999.558 111.742C999.981 111.742 1000.39 111.701 1000.79 111.619C1001.2 111.537 1001.61 111.425 1002.04 111.284V112.679C1001.63 112.838 1001.22 112.954 1000.81 113.027C1000.39 113.1 999.915 113.137 999.373 113.137C998.352 113.137 997.505 112.925 996.83 112.501C996.16 112.077 995.659 111.48 995.326 110.71C994.998 109.94 994.834 109.037 994.834 108.003C994.834 107.246 994.939 106.554 995.148 105.925C995.358 105.296 995.663 104.754 996.064 104.298C996.465 103.838 996.96 103.484 997.548 103.238C998.14 102.988 998.817 102.862 999.578 102.862C1000.08 102.862 1000.57 102.919 1001.05 103.033C1001.54 103.143 1001.99 103.3 1002.41 103.505L1001.83 104.858C1001.49 104.694 1001.13 104.553 1000.75 104.435C1000.37 104.316 999.977 104.257 999.571 104.257ZM1007.69 105.289C1008.65 105.289 1009.37 105.501 1009.86 105.925C1010.35 106.349 1010.59 107.009 1010.59 107.907V113H1009.45L1009.14 111.927H1009.09C1008.88 112.2 1008.65 112.426 1008.43 112.604C1008.2 112.781 1007.93 112.913 1007.63 113C1007.34 113.091 1006.98 113.137 1006.55 113.137C1006.1 113.137 1005.69 113.055 1005.34 112.891C1004.98 112.722 1004.7 112.467 1004.5 112.125C1004.29 111.783 1004.19 111.35 1004.19 110.826C1004.19 110.047 1004.48 109.461 1005.06 109.069C1005.64 108.677 1006.52 108.461 1007.7 108.42L1009.01 108.372V107.976C1009.01 107.451 1008.88 107.078 1008.64 106.854C1008.4 106.631 1008.06 106.52 1007.61 106.52C1007.23 106.52 1006.87 106.574 1006.51 106.684C1006.16 106.793 1005.81 106.927 1005.47 107.087L1004.95 105.952C1005.32 105.756 1005.74 105.597 1006.21 105.474C1006.69 105.351 1007.18 105.289 1007.69 105.289ZM1009 109.384L1008.02 109.418C1007.22 109.445 1006.66 109.582 1006.33 109.828C1006.01 110.074 1005.85 110.411 1005.85 110.84C1005.85 111.214 1005.96 111.487 1006.18 111.66C1006.41 111.829 1006.7 111.913 1007.07 111.913C1007.62 111.913 1008.08 111.756 1008.45 111.441C1008.82 111.122 1009 110.655 1009 110.04V109.384ZM1015.22 109.131L1012.69 105.433H1014.52L1016.25 108.092L1017.99 105.433H1019.81L1017.27 109.131L1019.94 113H1018.1L1016.25 110.163L1014.39 113H1012.57L1015.22 109.131ZM1024.92 105.289C1025.88 105.289 1026.6 105.501 1027.09 105.925C1027.58 106.349 1027.83 107.009 1027.83 107.907V113H1026.68L1026.38 111.927H1026.32C1026.11 112.2 1025.89 112.426 1025.66 112.604C1025.43 112.781 1025.17 112.913 1024.87 113C1024.57 113.091 1024.21 113.137 1023.78 113.137C1023.33 113.137 1022.92 113.055 1022.57 112.891C1022.21 112.722 1021.93 112.467 1021.73 112.125C1021.52 111.783 1021.42 111.35 1021.42 110.826C1021.42 110.047 1021.71 109.461 1022.29 109.069C1022.87 108.677 1023.75 108.461 1024.93 108.42L1026.24 108.372V107.976C1026.24 107.451 1026.12 107.078 1025.87 106.854C1025.63 106.631 1025.29 106.52 1024.85 106.52C1024.47 106.52 1024.1 106.574 1023.74 106.684C1023.39 106.793 1023.04 106.927 1022.71 107.087L1022.19 105.952C1022.56 105.756 1022.97 105.597 1023.44 105.474C1023.92 105.351 1024.41 105.289 1024.92 105.289ZM1026.23 109.384L1025.26 109.418C1024.45 109.445 1023.89 109.582 1023.57 109.828C1023.24 110.074 1023.08 110.411 1023.08 110.84C1023.08 111.214 1023.19 111.487 1023.42 111.66C1023.64 111.829 1023.93 111.913 1024.3 111.913C1024.85 111.913 1025.31 111.756 1025.68 111.441C1026.05 111.122 1026.23 110.655 1026.23 110.04V109.384ZM1037 113H1035.38V106.69H1033.28C1033.19 107.839 1033.08 108.821 1032.94 109.637C1032.8 110.452 1032.63 111.118 1032.43 111.633C1032.22 112.143 1031.97 112.517 1031.67 112.754C1031.37 112.991 1031.01 113.109 1030.58 113.109C1030.4 113.109 1030.23 113.096 1030.08 113.068C1029.93 113.046 1029.79 113.009 1029.67 112.959V111.694C1029.75 111.722 1029.84 111.744 1029.93 111.763C1030.02 111.781 1030.11 111.79 1030.21 111.79C1030.38 111.79 1030.53 111.722 1030.67 111.585C1030.82 111.444 1030.95 111.223 1031.08 110.922C1031.2 110.621 1031.31 110.225 1031.41 109.732C1031.51 109.236 1031.6 108.634 1031.68 107.928C1031.77 107.217 1031.84 106.385 1031.9 105.433H1037V113ZM1041.55 105.433V109.295C1041.55 109.418 1041.55 109.575 1041.54 109.767C1041.53 109.953 1041.52 110.149 1041.51 110.354C1041.5 110.555 1041.48 110.74 1041.47 110.908C1041.46 111.077 1041.44 111.202 1041.43 111.284L1045.24 105.433H1047.2V113H1045.66V109.179C1045.66 108.978 1045.66 108.746 1045.67 108.481C1045.69 108.217 1045.7 107.962 1045.71 107.716C1045.73 107.47 1045.74 107.283 1045.75 107.155L1041.95 113H1040.01V105.433H1041.55ZM1051.82 105.433V108.475H1055.36V105.433H1056.98V113H1055.36V109.732H1051.82V113H1050.21V105.433H1051.82Z" fill="#162B29"/>
</svg>
