<svg width="454" height="121" viewBox="0 0 454 121" fill="none" xmlns="http://www.w3.org/2000/svg">
<path d="M63.5357 48.3755L64.323 47.7589L63.0898 46.1843L62.3025 46.8009L63.5357 48.3755ZM74.9695 38.2495L74.1014 38.7459L75.0943 40.4821L75.9624 39.9856L74.9695 38.2495ZM89.5185 33.6232L90.4559 33.2748L89.7591 31.4001L88.8217 31.7485L89.5185 33.6232ZM103.627 27.641L102.645 27.8257L103.014 29.7913L103.997 29.6065L103.627 27.641ZM118.928 28.0365L119.928 28.0097L119.874 26.0105L118.875 26.0372L118.928 28.0365ZM134.181 26.7056L133.187 26.596L132.968 28.584L133.962 28.6936L134.181 26.7056ZM148.818 31.1979L149.794 31.416L150.23 29.4642L149.254 29.246L148.818 31.1979ZM164.012 33.2455L163.058 32.9445L162.456 34.8518L163.41 35.1528L164.012 33.2455ZM177.702 40.2048L178.634 40.5672L179.358 38.7031L178.426 38.3408L177.702 40.2048ZM192.476 44.2167L191.562 43.8099L190.749 45.637L191.662 46.0438L192.476 44.2167ZM205.4 52.4631L206.299 52.901L207.175 51.1029L206.276 50.665L205.4 52.4631ZM219.884 57.5002L218.995 57.0421L218.079 58.8199L218.968 59.278L219.884 57.5002ZM232.427 66.3327L233.31 66.8016L234.248 65.0352L233.365 64.5662L232.427 66.3327ZM246.78 71.724L245.898 71.2529L244.956 73.017L245.838 73.4882L246.78 71.724ZM259.275 80.6161L260.16 81.0808L261.09 79.3098L260.204 78.8452L259.275 80.6161ZM273.716 85.7988L272.822 85.3499L271.924 87.1371L272.818 87.5859L273.716 85.7988ZM286.53 94.2392L287.436 94.6613L288.28 92.8483L287.374 92.4261L286.53 94.2392ZM301.24 98.5387L300.316 98.1568L299.552 100.005L300.476 100.387L301.24 98.5387ZM314.717 105.791L315.663 106.115L316.312 104.223L315.366 103.899L314.717 105.791ZM329.878 108.225L328.908 107.982L328.422 109.923L329.393 110.165L329.878 108.225ZM344.42 113.066L345.412 113.196L345.673 111.214L344.681 111.083L344.42 113.066ZM359.673 111.988L358.673 112.004L358.705 114.004L359.705 113.988L359.673 111.988ZM374.975 112.406L375.956 112.212L375.57 110.25L374.589 110.443L374.975 112.406ZM388.958 106.138L388.033 106.516L388.79 108.367L389.716 107.989L388.958 106.138ZM403.263 100.901L404.104 100.36L403.02 98.6785L402.18 99.2202L403.263 100.901ZM57.6663 53.2926C59.6136 51.5526 61.5703 49.9148 63.5357 48.3755L62.3025 46.8009C60.3022 48.3676 58.3124 50.0332 56.3337 51.8012L57.6663 53.2926ZM75.9624 39.9856C80.4407 37.4246 84.9608 35.3173 89.5185 33.6232L88.8217 31.7485C84.1604 33.4811 79.5414 35.6349 74.9695 38.2495L75.9624 39.9856ZM103.997 29.6065C108.934 28.6785 113.912 28.1708 118.928 28.0365L118.875 26.0372C113.759 26.1742 108.674 26.6922 103.627 27.641L103.997 29.6065ZM133.962 28.6936C138.885 29.2361 143.838 30.085 148.818 31.1979L149.254 29.246C144.21 28.1188 139.184 27.257 134.181 26.7056L133.962 28.6936ZM163.41 35.1528C168.157 36.6506 172.922 38.3467 177.702 40.2048L178.426 38.3408C173.612 36.469 168.805 34.758 164.012 33.2455L163.41 35.1528ZM191.662 46.0438C196.234 48.0796 200.815 50.2298 205.4 52.4631L206.276 50.665C201.674 48.4236 197.072 46.2634 192.476 44.2167L191.662 46.0438ZM218.968 59.278C223.455 61.5903 227.942 63.9516 232.427 66.3327L233.365 64.5662C228.876 62.183 224.381 59.8176 219.884 57.5002L218.968 59.278ZM245.838 73.4882C250.324 75.884 254.805 78.2703 259.275 80.6161L260.204 78.8452C255.741 76.5028 251.265 74.1194 246.78 71.724L245.838 73.4882ZM272.818 87.5859C277.403 89.8892 281.975 92.118 286.53 94.2392L287.374 92.4261C282.841 90.3149 278.287 88.095 273.716 85.7988L272.818 87.5859ZM300.476 100.387C305.247 102.359 309.996 104.173 314.717 105.791L315.366 103.899C310.688 102.296 305.979 100.497 301.24 98.5387L300.476 100.387ZM329.393 110.165C334.439 111.427 339.45 112.411 344.42 113.066L344.681 111.083C339.796 110.439 334.86 109.471 329.878 108.225L329.393 110.165ZM359.705 113.988C364.851 113.904 369.944 113.397 374.975 112.406L374.589 110.443C369.682 111.41 364.708 111.906 359.673 111.988L359.705 113.988ZM389.716 107.989C394.299 106.114 398.816 103.767 403.263 100.901L402.18 99.2202C397.834 102.02 393.425 104.31 388.958 106.138L389.716 107.989Z" fill="#162B29"/>
<path d="M50 23C47.0837 23.0034 44.2878 24.1635 42.2256 26.2256C40.1635 28.2878 39.0034 31.0837 39 34C38.9965 36.3832 39.775 38.7018 41.216 40.6C41.216 40.6 41.516 40.995 41.565 41.052L50 51L58.439 41.047C58.483 40.994 58.784 40.6 58.784 40.6L58.785 40.597C60.2253 38.6996 61.0034 36.3821 61 34C60.9966 31.0837 59.8365 28.2878 57.7744 26.2256C55.7122 24.1635 52.9163 23.0034 50 23V23ZM50 38C49.2089 38 48.4355 37.7654 47.7777 37.3259C47.1199 36.8864 46.6072 36.2616 46.3045 35.5307C46.0017 34.7998 45.9225 33.9956 46.0769 33.2196C46.2312 32.4437 46.6122 31.731 47.1716 31.1716C47.731 30.6122 48.4437 30.2312 49.2196 30.0769C49.9956 29.9225 50.7998 30.0017 51.5307 30.3045C52.2616 30.6072 52.8863 31.1199 53.3259 31.7777C53.7654 32.4355 54 33.2089 54 34C53.9987 35.0605 53.5768 36.0771 52.827 36.827C52.0771 37.5768 51.0605 37.9987 50 38V38Z" fill="#162B29"/>
<path d="M5.62598 15L2.74805 6.65332H2.68652C2.7002 6.84017 2.71615 7.09538 2.73438 7.41895C2.7526 7.74251 2.76855 8.08887 2.78223 8.45801C2.7959 8.82715 2.80273 9.18034 2.80273 9.51758V15H1.3125V5.00586H3.61621L6.38477 12.9834H6.42578L9.29004 5.00586H11.5869V15H10.0215V9.43555C10.0215 9.13021 10.026 8.7998 10.0352 8.44434C10.0488 8.08887 10.0625 7.75163 10.0762 7.43262C10.0944 7.11361 10.1081 6.8584 10.1172 6.66699H10.0625L7.0752 15H5.62598ZM13.6131 7.43262H15.3631L16.9148 11.7529C16.9832 11.9489 17.0447 12.1426 17.0994 12.334C17.1587 12.5208 17.2088 12.7054 17.2498 12.8877C17.2954 13.07 17.3318 13.2523 17.3592 13.4346H17.4002C17.4458 13.1976 17.5096 12.9333 17.5916 12.6416C17.6782 12.3454 17.7739 12.0492 17.8787 11.7529L19.3689 7.43262H21.0984L17.8514 16.0391C17.6645 16.5312 17.4344 16.9505 17.1609 17.2969C16.8921 17.6478 16.573 17.9121 16.2039 18.0898C15.8348 18.2721 15.4132 18.3633 14.9393 18.3633C14.7114 18.3633 14.5132 18.3496 14.3445 18.3223C14.1759 18.2995 14.0324 18.2744 13.9139 18.2471V16.9619C14.0096 16.9847 14.1303 17.0052 14.2762 17.0234C14.422 17.0417 14.5724 17.0508 14.7273 17.0508C15.0145 17.0508 15.2628 16.9938 15.4725 16.8799C15.6821 16.766 15.8598 16.6042 16.0057 16.3945C16.1515 16.1895 16.2723 15.9548 16.368 15.6904L16.6346 14.9795L13.6131 7.43262ZM26.8297 7.28906C27.7275 7.28906 28.4475 7.61719 28.9898 8.27344C29.5367 8.92969 29.8102 9.90495 29.8102 11.1992C29.8102 12.056 29.6826 12.7783 29.4273 13.3662C29.1767 13.9495 28.8235 14.3916 28.3678 14.6924C27.9166 14.9886 27.3902 15.1367 26.7887 15.1367C26.4059 15.1367 26.0732 15.0866 25.7906 14.9863C25.5081 14.8861 25.2665 14.7562 25.066 14.5967C24.8655 14.4326 24.6969 14.2549 24.5602 14.0635H24.4645C24.4872 14.2458 24.5077 14.4486 24.526 14.6719C24.5488 14.8906 24.5602 15.0911 24.5602 15.2734V18.3564H22.9469V7.43262H24.2594L24.485 8.47852H24.5602C24.7014 8.26432 24.8723 8.06608 25.0729 7.88379C25.2779 7.7015 25.524 7.55794 25.8111 7.45312C26.1028 7.34375 26.4423 7.28906 26.8297 7.28906ZM26.399 8.60156C25.957 8.60156 25.6015 8.69043 25.3326 8.86816C25.0683 9.04134 24.8746 9.30339 24.7516 9.6543C24.6331 10.0052 24.5693 10.445 24.5602 10.9736V11.1992C24.5602 11.7598 24.6171 12.236 24.7311 12.6279C24.8495 13.0153 25.0432 13.3115 25.3121 13.5166C25.5855 13.7171 25.9547 13.8174 26.4195 13.8174C26.8115 13.8174 27.135 13.7103 27.3902 13.4961C27.65 13.2819 27.8437 12.9766 27.9713 12.5801C28.0989 12.1836 28.1627 11.7165 28.1627 11.1787C28.1627 10.363 28.0169 9.72949 27.7252 9.27832C27.4381 8.82715 26.996 8.60156 26.399 8.60156ZM41.14 7.43262V15H39.6498V10.6797C39.6498 10.3971 39.6566 10.1146 39.6703 9.83203C39.684 9.54948 39.7022 9.2806 39.725 9.02539H39.684L37.3803 15H36.1156L33.8324 9.01855H33.7846C33.8074 9.27832 33.8233 9.5472 33.8324 9.8252C33.8461 10.1032 33.8529 10.404 33.8529 10.7275V15H32.3627V7.43262H34.6049L36.765 13.0859L38.9594 7.43262H41.14ZM47.0832 7.28906C48.0402 7.28906 48.7626 7.50098 49.2502 7.9248C49.7424 8.34863 49.9885 9.00944 49.9885 9.90723V15H48.8469L48.5393 13.9268H48.4846C48.2704 14.2002 48.0493 14.4258 47.8215 14.6035C47.5936 14.7812 47.3293 14.9134 47.0285 15C46.7323 15.0911 46.37 15.1367 45.9416 15.1367C45.4904 15.1367 45.0871 15.0547 44.7316 14.8906C44.3762 14.722 44.0959 14.4668 43.8908 14.125C43.6857 13.7832 43.5832 13.3503 43.5832 12.8262C43.5832 12.0469 43.8726 11.4613 44.4514 11.0693C45.0347 10.6774 45.9143 10.4609 47.09 10.4199L48.4025 10.3721V9.97559C48.4025 9.4515 48.2795 9.0778 48.0334 8.85449C47.7919 8.63118 47.4501 8.51953 47.008 8.51953C46.6298 8.51953 46.2629 8.57422 45.9074 8.68359C45.552 8.79297 45.2056 8.92741 44.8684 9.08691L44.3488 7.95215C44.718 7.75618 45.1372 7.59668 45.6066 7.47363C46.0806 7.35059 46.5728 7.28906 47.0832 7.28906ZM48.3957 11.3838L47.4182 11.418C46.6161 11.4453 46.0533 11.582 45.7297 11.8281C45.4061 12.0742 45.2443 12.4115 45.2443 12.8398C45.2443 13.2135 45.356 13.487 45.5793 13.6602C45.8026 13.8288 46.0965 13.9131 46.4611 13.9131C47.0171 13.9131 47.4774 13.7559 47.842 13.4414C48.2111 13.1224 48.3957 12.6553 48.3957 12.04V11.3838ZM54.5508 7.43262V10.4746H58.0918V7.43262H59.7051V15H58.0918V11.7324H54.5508V15H52.9375V7.43262H54.5508ZM65.7508 15.1367C65.0353 15.1367 64.4155 14.9977 63.8914 14.7197C63.3673 14.4417 62.964 14.0156 62.6814 13.4414C62.3989 12.8672 62.2576 12.138 62.2576 11.2539C62.2576 10.3333 62.4126 9.58138 62.7225 8.99805C63.0324 8.41471 63.4607 7.98405 64.0076 7.70605C64.5591 7.42806 65.1902 7.28906 65.9012 7.28906C66.3523 7.28906 66.7602 7.33464 67.1248 7.42578C67.4939 7.51237 67.8061 7.61947 68.0613 7.74707L67.5828 9.03223C67.3048 8.91829 67.02 8.82259 66.7283 8.74512C66.4367 8.66764 66.1564 8.62891 65.8875 8.62891C65.4454 8.62891 65.0763 8.72689 64.7801 8.92285C64.4884 9.11882 64.2697 9.41048 64.1238 9.79785C63.9826 10.1852 63.9119 10.666 63.9119 11.2402C63.9119 11.7962 63.9848 12.2656 64.1307 12.6484C64.2765 13.0267 64.493 13.3138 64.7801 13.5098C65.0672 13.7012 65.4204 13.7969 65.8396 13.7969C66.2544 13.7969 66.6258 13.7467 66.9539 13.6465C67.282 13.5462 67.5919 13.4163 67.8836 13.2568V14.6514C67.5965 14.8154 67.2889 14.9362 66.9607 15.0137C66.6326 15.0957 66.2293 15.1367 65.7508 15.1367ZM75.0504 7.43262H76.8209L73.69 11.0693L77.0875 15H75.235L71.9742 11.1582V15H70.3609V7.43262H71.9742V11.1035L75.0504 7.43262Z" fill="#162B29"/>
<path d="M418 72C415.084 72.0034 412.288 73.1635 410.226 75.2256C408.163 77.2878 407.003 80.0837 407 83C406.997 85.3832 407.775 87.7018 409.216 89.6C409.216 89.6 409.516 89.995 409.565 90.052L418 100L426.439 90.047C426.483 89.994 426.784 89.6 426.784 89.6L426.785 89.597C428.225 87.6996 429.003 85.3821 429 83C428.997 80.0837 427.837 77.2878 425.774 75.2256C423.712 73.1635 420.916 72.0034 418 72V72ZM418 87C417.209 87 416.436 86.7654 415.778 86.3259C415.12 85.8864 414.607 85.2616 414.304 84.5307C414.002 83.7998 413.923 82.9956 414.077 82.2196C414.231 81.4437 414.612 80.731 415.172 80.1716C415.731 79.6122 416.444 79.2312 417.22 79.0769C417.996 78.9225 418.8 79.0017 419.531 79.3045C420.262 79.6072 420.886 80.1199 421.326 80.7777C421.765 81.4355 422 82.2089 422 83C421.999 84.0605 421.577 85.0771 420.827 85.827C420.077 86.5768 419.06 86.9987 418 87V87Z" fill="#162B29"/>
<path d="M394.571 108.257C394.093 108.257 393.664 108.343 393.286 108.517C392.912 108.69 392.596 108.94 392.336 109.269C392.076 109.592 391.878 109.986 391.741 110.451C391.604 110.911 391.536 111.431 391.536 112.01C391.536 112.785 391.646 113.452 391.864 114.013C392.083 114.569 392.416 114.997 392.862 115.298C393.309 115.594 393.874 115.742 394.558 115.742C394.981 115.742 395.394 115.701 395.795 115.619C396.196 115.537 396.611 115.425 397.039 115.284V116.679C396.633 116.838 396.223 116.954 395.809 117.027C395.394 117.1 394.915 117.137 394.373 117.137C393.352 117.137 392.505 116.925 391.83 116.501C391.16 116.077 390.659 115.48 390.326 114.71C389.998 113.94 389.834 113.037 389.834 112.003C389.834 111.246 389.939 110.554 390.148 109.925C390.358 109.296 390.663 108.754 391.064 108.298C391.465 107.838 391.96 107.484 392.548 107.238C393.14 106.988 393.817 106.862 394.578 106.862C395.079 106.862 395.572 106.919 396.055 107.033C396.542 107.143 396.993 107.3 397.408 107.505L396.834 108.858C396.488 108.694 396.125 108.553 395.747 108.435C395.369 108.316 394.977 108.257 394.571 108.257ZM402.688 109.289C403.645 109.289 404.368 109.501 404.855 109.925C405.347 110.349 405.594 111.009 405.594 111.907V117H404.452L404.144 115.927H404.09C403.875 116.2 403.654 116.426 403.427 116.604C403.199 116.781 402.934 116.913 402.634 117C402.337 117.091 401.975 117.137 401.547 117.137C401.096 117.137 400.692 117.055 400.337 116.891C399.981 116.722 399.701 116.467 399.496 116.125C399.291 115.783 399.188 115.35 399.188 114.826C399.188 114.047 399.478 113.461 400.056 113.069C400.64 112.677 401.519 112.461 402.695 112.42L404.008 112.372V111.976C404.008 111.451 403.885 111.078 403.638 110.854C403.397 110.631 403.055 110.52 402.613 110.52C402.235 110.52 401.868 110.574 401.512 110.684C401.157 110.793 400.811 110.927 400.473 111.087L399.954 109.952C400.323 109.756 400.742 109.597 401.212 109.474C401.686 109.351 402.178 109.289 402.688 109.289ZM404.001 113.384L403.023 113.418C402.221 113.445 401.658 113.582 401.335 113.828C401.011 114.074 400.849 114.411 400.849 114.84C400.849 115.214 400.961 115.487 401.184 115.66C401.408 115.829 401.702 115.913 402.066 115.913C402.622 115.913 403.082 115.756 403.447 115.441C403.816 115.122 404.001 114.655 404.001 114.04V113.384ZM410.217 113.131L407.688 109.433H409.52L411.25 112.092L412.986 109.433H414.811L412.268 113.131L414.941 117H413.102L411.25 114.163L409.39 117H407.565L410.217 113.131ZM419.92 109.289C420.877 109.289 421.6 109.501 422.087 109.925C422.579 110.349 422.826 111.009 422.826 111.907V117H421.684L421.376 115.927H421.322C421.107 116.2 420.886 116.426 420.659 116.604C420.431 116.781 420.166 116.913 419.866 117C419.569 117.091 419.207 117.137 418.779 117.137C418.328 117.137 417.924 117.055 417.569 116.891C417.213 116.722 416.933 116.467 416.728 116.125C416.523 115.783 416.42 115.35 416.42 114.826C416.42 114.047 416.71 113.461 417.288 113.069C417.872 112.677 418.751 112.461 419.927 112.42L421.24 112.372V111.976C421.24 111.451 421.117 111.078 420.871 110.854C420.629 110.631 420.287 110.52 419.845 110.52C419.467 110.52 419.1 110.574 418.745 110.684C418.389 110.793 418.043 110.927 417.705 111.087L417.186 109.952C417.555 109.756 417.974 109.597 418.444 109.474C418.918 109.351 419.41 109.289 419.92 109.289ZM421.233 113.384L420.255 113.418C419.453 113.445 418.89 113.582 418.567 113.828C418.243 114.074 418.081 114.411 418.081 114.84C418.081 115.214 418.193 115.487 418.416 115.66C418.64 115.829 418.934 115.913 419.298 115.913C419.854 115.913 420.315 115.756 420.679 115.441C421.048 115.122 421.233 114.655 421.233 114.04V113.384ZM432.002 117H430.382V110.69H428.283C428.192 111.839 428.078 112.821 427.942 113.637C427.805 114.452 427.634 115.118 427.429 115.633C427.224 116.143 426.971 116.517 426.67 116.754C426.369 116.991 426.007 117.109 425.583 117.109C425.396 117.109 425.228 117.096 425.077 117.068C424.927 117.046 424.793 117.009 424.674 116.959V115.694C424.751 115.722 424.836 115.744 424.927 115.763C425.018 115.781 425.112 115.79 425.207 115.79C425.376 115.79 425.531 115.722 425.672 115.585C425.818 115.444 425.952 115.223 426.075 114.922C426.198 114.621 426.31 114.225 426.41 113.732C426.511 113.236 426.602 112.634 426.684 111.928C426.766 111.217 426.839 110.385 426.903 109.433H432.002V117ZM436.551 109.433V113.295C436.551 113.418 436.546 113.575 436.537 113.767C436.533 113.953 436.523 114.149 436.51 114.354C436.496 114.555 436.482 114.74 436.469 114.908C436.455 115.077 436.444 115.202 436.435 115.284L440.242 109.433H442.197V117H440.659V113.179C440.659 112.978 440.664 112.746 440.673 112.481C440.687 112.217 440.7 111.962 440.714 111.716C440.732 111.47 440.743 111.283 440.748 111.155L436.954 117H435.006V109.433H436.551ZM446.821 109.433V112.475H450.362V109.433H451.975V117H450.362V113.732H446.821V117H445.208V109.433H446.821Z" fill="#162B29"/>
</svg>
