<svg width="16" height="20" viewBox="0 0 16 20" fill="none" xmlns="http://www.w3.org/2000/svg">
<path fill-rule="evenodd" clip-rule="evenodd" d="M1.58366 17.3333H14.417C14.6601 17.3333 14.8933 17.4299 15.0652 17.6018C15.2371 17.7737 15.3337 18.0069 15.3337 18.25C15.3337 18.4931 15.2371 18.7263 15.0652 18.8982C14.8933 19.0701 14.6601 19.1666 14.417 19.1666H1.58366C1.34054 19.1666 1.10739 19.0701 0.935478 18.8982C0.763569 18.7263 0.666992 18.4931 0.666992 18.25C0.666992 18.0069 0.763569 17.7737 0.935478 17.6018C1.10739 17.4299 1.34054 17.3333 1.58366 17.3333ZM0.666992 12.75L9.83366 3.58331L12.5837 6.33331L3.41699 15.5H0.666992V12.75ZM10.7503 2.66665L12.5837 0.833313L15.3337 3.58331L13.4994 5.41756L10.7503 2.66665Z" fill="#808080"/>
</svg>
