<svg width="19" height="19" viewBox="0 0 19 19" fill="none" xmlns="http://www.w3.org/2000/svg">
<path d="M9.49969 12.6676C9.31471 12.668 9.13545 12.6036 8.99302 12.4855L4.24302 8.52721C4.08135 8.39283 3.97968 8.19974 3.96038 7.9904C3.94108 7.78106 4.00573 7.57263 4.14011 7.41096C4.27448 7.24929 4.46758 7.14762 4.67692 7.12832C4.88625 7.10902 5.09468 7.17367 5.25636 7.30804L9.49969 10.8547L13.743 7.43471C13.824 7.36895 13.9172 7.31984 14.0172 7.29021C14.1172 7.26058 14.2221 7.251 14.3258 7.26204C14.4296 7.27307 14.5301 7.3045 14.6216 7.35451C14.7132 7.40452 14.7939 7.47214 14.8593 7.55346C14.9318 7.63486 14.9867 7.73036 15.0206 7.83397C15.0544 7.93757 15.0666 8.04706 15.0561 8.15557C15.0457 8.26408 15.013 8.36927 14.9601 8.46455C14.9071 8.55983 14.8351 8.64315 14.7484 8.70929L9.99844 12.533C9.85191 12.6324 9.67631 12.6798 9.49969 12.6676Z" fill="#162B29"/>
</svg>
