<svg width="27" height="27" viewBox="0 0 27 27" fill="none" xmlns="http://www.w3.org/2000/svg">
<path fill-rule="evenodd" clip-rule="evenodd" d="M13.5 0C6.0435 0 0 6.04463 0 13.5C0 20.9554 6.0435 27 13.5 27C20.9554 27 27 20.9554 27 13.5C27 6.04463 20.9554 0 13.5 0ZM13.6575 21.3952C9.306 21.3952 5.7825 17.8628 5.7825 13.5C5.7825 9.13725 9.306 5.60475 13.6575 5.60475C15.7838 5.60475 17.5613 6.38887 18.9248 7.66237L16.704 9.88762V9.88312C15.8771 9.09337 14.8286 8.68838 13.6575 8.68838C11.0588 8.68838 8.94713 10.8889 8.94713 13.4955C8.94713 16.0999 11.0588 18.3071 13.6575 18.3071C16.0155 18.3071 17.6198 16.9549 17.9505 15.0986H13.6575V12.0195H21.0656C21.1646 12.5483 21.2175 13.0995 21.2175 13.6777C21.2175 18.189 18.2059 21.3952 13.6575 21.3952V21.3952Z" fill="#162B29"/>
</svg>
