<svg width="790" height="639" viewBox="0 0 790 639" fill="none" xmlns="http://www.w3.org/2000/svg">
<path d="M5.7627 50L2.40625 41.1543H2.35156C2.36979 41.3411 2.38574 41.569 2.39941 41.8379C2.41309 42.1068 2.42448 42.4007 2.43359 42.7197C2.44271 43.0342 2.44727 43.3555 2.44727 43.6836V50H1.36719V40.0059H3.08984L6.25488 48.3184H6.30273L9.51562 40.0059H11.2246V50H10.0762V43.6016C10.0762 43.3053 10.0807 43.0091 10.0898 42.7129C10.099 42.4121 10.1104 42.1296 10.124 41.8652C10.1377 41.5964 10.1514 41.3639 10.165 41.168H10.1104L6.71289 50H5.7627ZM13.3055 42.5078H14.5223L16.1766 46.8555C16.2723 47.1107 16.3611 47.3568 16.4432 47.5938C16.5252 47.8262 16.5981 48.0495 16.6619 48.2637C16.7257 48.4779 16.7758 48.6852 16.8123 48.8857H16.8602C16.924 48.6579 17.0151 48.3594 17.1336 47.9902C17.2521 47.6165 17.3797 47.236 17.5164 46.8486L19.0818 42.5078H20.3055L17.0447 51.1006C16.8715 51.5609 16.6687 51.9619 16.4363 52.3037C16.2085 52.6455 15.9305 52.9076 15.6023 53.0898C15.2742 53.2767 14.8777 53.3701 14.4129 53.3701C14.1987 53.3701 14.0096 53.3564 13.8455 53.3291C13.6814 53.3063 13.5402 53.279 13.4217 53.2471V52.3379C13.5219 52.3607 13.6427 52.3812 13.784 52.3994C13.9298 52.4176 14.0802 52.4268 14.2352 52.4268C14.5177 52.4268 14.7615 52.3721 14.9666 52.2627C15.1762 52.1579 15.3562 52.0029 15.5066 51.7979C15.657 51.5928 15.7869 51.349 15.8963 51.0664L16.3064 50.0137L13.3055 42.5078ZM25.7223 42.3711C26.6565 42.3711 27.4016 42.6924 27.9576 43.335C28.5136 43.9775 28.7916 44.9437 28.7916 46.2334C28.7916 47.0856 28.664 47.8011 28.4088 48.3799C28.1536 48.9587 27.7936 49.3962 27.3287 49.6924C26.8684 49.9886 26.3238 50.1367 25.6949 50.1367C25.2984 50.1367 24.9498 50.0843 24.649 49.9795C24.3482 49.8747 24.0908 49.7334 23.8766 49.5557C23.6624 49.3779 23.4846 49.1842 23.3434 48.9746H23.2613C23.275 49.1523 23.291 49.3665 23.3092 49.6172C23.332 49.8678 23.3434 50.0866 23.3434 50.2734V53.3496H22.2018V42.5078H23.1383L23.2887 43.6152H23.3434C23.4892 43.3874 23.6669 43.18 23.8766 42.9932C24.0862 42.8018 24.3414 42.6514 24.6422 42.542C24.9475 42.4281 25.3076 42.3711 25.7223 42.3711ZM25.524 43.3281C25.0045 43.3281 24.5852 43.4284 24.2662 43.6289C23.9518 43.8294 23.7216 44.1302 23.5758 44.5312C23.4299 44.9277 23.3525 45.4268 23.3434 46.0283V46.2471C23.3434 46.8805 23.4117 47.416 23.5484 47.8535C23.6897 48.291 23.9199 48.6237 24.2389 48.8516C24.5624 49.0794 24.9954 49.1934 25.5377 49.1934C26.0025 49.1934 26.3899 49.068 26.6998 48.8174C27.0097 48.5667 27.2398 48.2181 27.3902 47.7715C27.5452 47.3203 27.6227 46.8031 27.6227 46.2197C27.6227 45.3356 27.4495 44.6338 27.1031 44.1143C26.7613 43.5902 26.235 43.3281 25.524 43.3281ZM39.3832 42.5078V50H38.3578V45.1191C38.3578 44.9186 38.3624 44.7158 38.3715 44.5107C38.3852 44.3011 38.4011 44.0915 38.4193 43.8818H38.3783L35.89 50H34.9262L32.4994 43.8818H32.4584C32.4721 44.0915 32.4812 44.3011 32.4857 44.5107C32.4949 44.7158 32.4994 44.9323 32.4994 45.1602V50H31.4672V42.5078H32.9916L35.4115 48.6328L37.8656 42.5078H39.3832ZM45.2443 42.3848C46.1376 42.3848 46.8007 42.5853 47.2336 42.9863C47.6665 43.3874 47.883 44.0277 47.883 44.9072V50H47.0559L46.8371 48.8926H46.7824C46.5728 49.166 46.354 49.3962 46.1262 49.583C45.8983 49.7653 45.634 49.9043 45.3332 50C45.037 50.0911 44.6724 50.1367 44.2395 50.1367C43.7837 50.1367 43.3781 50.057 43.0227 49.8975C42.6717 49.738 42.3937 49.4964 42.1887 49.1729C41.9882 48.8493 41.8879 48.4391 41.8879 47.9424C41.8879 47.195 42.1841 46.6208 42.7766 46.2197C43.369 45.8187 44.2714 45.5999 45.4836 45.5635L46.7756 45.5088V45.0508C46.7756 44.4036 46.6366 43.9502 46.3586 43.6904C46.0806 43.4307 45.6887 43.3008 45.1828 43.3008C44.7909 43.3008 44.4172 43.3577 44.0617 43.4717C43.7062 43.5856 43.369 43.7201 43.05 43.875L42.7014 43.0137C43.0386 42.8405 43.426 42.6924 43.8635 42.5693C44.301 42.4463 44.7613 42.3848 45.2443 42.3848ZM46.7619 46.3086L45.6203 46.3564C44.6861 46.3929 44.0275 46.5456 43.6447 46.8145C43.2619 47.0833 43.0705 47.4639 43.0705 47.9561C43.0705 48.3844 43.2004 48.7012 43.4602 48.9062C43.7199 49.1113 44.064 49.2139 44.4924 49.2139C45.1577 49.2139 45.7023 49.0293 46.1262 48.6602C46.55 48.291 46.7619 47.7373 46.7619 46.999V46.3086ZM52.0625 42.5078V45.6523H56.2393V42.5078H57.374V50H56.2393V46.6162H52.0625V50H50.9209V42.5078H52.0625ZM63.4813 50.1367C62.8068 50.1367 62.212 49.9977 61.6971 49.7197C61.1821 49.4417 60.7811 49.0179 60.4939 48.4482C60.2068 47.8786 60.0633 47.1608 60.0633 46.2949C60.0633 45.388 60.2137 44.6475 60.5145 44.0732C60.8198 43.4945 61.2391 43.0661 61.7723 42.7881C62.3055 42.5101 62.9116 42.3711 63.5906 42.3711C63.9643 42.3711 64.3243 42.4098 64.6707 42.4873C65.0216 42.5602 65.3087 42.6536 65.532 42.7676L65.1902 43.7178C64.9624 43.6266 64.698 43.5446 64.3973 43.4717C64.101 43.3988 63.823 43.3623 63.5633 43.3623C63.0438 43.3623 62.6108 43.474 62.2645 43.6973C61.9227 43.9206 61.6652 44.2487 61.492 44.6816C61.3234 45.1146 61.2391 45.6478 61.2391 46.2812C61.2391 46.8874 61.3211 47.4046 61.4852 47.833C61.6538 48.2614 61.9021 48.5895 62.2303 48.8174C62.563 49.0407 62.9777 49.1523 63.4744 49.1523C63.8709 49.1523 64.2286 49.1113 64.5477 49.0293C64.8667 48.9427 65.1561 48.8424 65.4158 48.7285V49.7402C65.1652 49.8678 64.8849 49.9658 64.575 50.0342C64.2697 50.1025 63.9051 50.1367 63.4813 50.1367ZM72.2613 42.5078H73.5123L70.2789 46.124L73.7721 50H72.4391L69.0348 46.1992V50H67.8932V42.5078H69.0348V46.1445L72.2613 42.5078Z" fill="black"/>
<path d="M30.4261 34.0056C30.153 34.0464 29.9647 34.3008 30.0055 34.5739C30.0463 34.8471 30.3007 35.0354 30.5739 34.9946L30.4261 34.0056ZM121 603L121.442 603.235L121 603ZM758.471 540.999C758.747 541.015 758.983 540.804 758.999 540.529C759.015 540.253 758.804 540.017 758.529 540.001L758.471 540.999ZM30.5739 34.9946C32.5167 34.7045 34.4635 34.4214 36.414 34.1454L36.2739 33.1553C34.3209 33.4316 32.3715 33.7151 30.4261 34.0056L30.5739 34.9946ZM48.1607 32.573C52.0756 32.0784 56.004 31.6112 59.9445 31.1706L59.8334 30.1768C55.8883 30.6179 51.9551 31.0857 48.0354 31.5809L48.1607 32.573ZM71.7261 29.936C75.6573 29.5511 79.5991 29.192 83.55 28.8581L83.4657 27.8616C79.5105 28.1959 75.5644 28.5554 71.6286 28.9407L71.7261 29.936ZM95.3574 27.9363C99.3 27.6536 103.25 27.3953 107.207 27.1607L107.148 26.1624C103.187 26.3973 99.2327 26.6559 95.2859 26.9389L95.3574 27.9363ZM119.034 26.5304C122.982 26.3435 126.935 26.1795 130.891 26.038L130.855 25.0386C126.895 25.1803 122.939 25.3444 118.987 25.5315L119.034 26.5304ZM142.739 25.6808C146.69 25.5837 150.643 25.5084 154.597 25.4543L154.583 24.4544C150.626 24.5085 146.669 24.5839 142.715 24.6811L142.739 25.6808ZM166.457 25.3551C170.411 25.3428 174.363 25.3512 178.314 25.3798L178.322 24.3798C174.367 24.3513 170.411 24.3428 166.454 24.3551L166.457 25.3551ZM190.176 25.5255C194.132 25.5939 198.084 25.6821 202.032 25.7893L202.059 24.7897C198.108 24.6823 194.152 24.5941 190.193 24.5256L190.176 25.5255ZM213.883 26.1686C217.842 26.3144 221.794 26.4789 225.74 26.6616L225.786 25.6627C221.837 25.4798 217.882 25.3152 213.92 25.1693L213.883 26.1686ZM237.57 27.2649C241.532 27.4853 245.484 27.7237 249.427 27.9795L249.492 26.9816C245.546 26.7256 241.59 26.4871 237.626 26.2665L237.57 27.2649ZM261.228 28.7986C265.193 29.0918 269.146 29.4022 273.086 29.7291L273.169 28.7325C269.226 28.4053 265.27 28.0947 261.302 27.8013L261.228 28.7986ZM284.866 30.7592C288.83 31.1234 292.778 31.5041 296.71 31.9006L296.81 30.9056C292.875 30.5089 288.924 30.1279 284.958 29.7634L284.866 30.7592ZM308.471 33.1386C312.43 33.5728 316.37 34.0228 320.291 34.4878L320.409 33.4947C316.485 33.0294 312.542 32.5791 308.58 32.1445L308.471 33.1386ZM332.029 35.9322C335.983 36.4363 339.915 36.9554 343.823 37.4888L343.958 36.498C340.047 35.9642 336.113 35.4447 332.156 34.9402L332.029 35.9322ZM355.532 39.14C359.482 39.7148 363.405 40.3039 367.299 40.9066L367.452 39.9184C363.555 39.3153 359.629 38.7257 355.676 38.1504L355.532 39.14ZM378.969 42.7669C382.916 43.4145 386.831 44.0757 390.711 44.7497L390.882 43.7645C386.999 43.0899 383.081 42.4282 379.131 41.7801L378.969 42.7669ZM402.325 46.8233C406.272 47.5474 410.181 48.2844 414.048 49.0334L414.238 48.0516C410.367 47.302 406.456 46.5644 402.505 45.8397L402.325 46.8233ZM425.584 51.3273C429.534 52.1335 433.436 52.9518 437.29 53.7812L437.5 52.8036C433.643 51.9734 429.737 51.1544 425.784 50.3475L425.584 51.3273ZM448.817 56.3282C452.736 57.2172 456.599 58.1171 460.403 59.027L460.635 58.0544C456.828 57.1436 452.961 56.2428 449.038 55.353L448.817 56.3282ZM471.932 61.8606C475.8 62.8371 479.598 63.8232 483.324 64.8176L483.582 63.8514C479.851 62.8559 476.049 61.8686 472.177 60.8911L471.932 61.8606ZM494.858 67.9861C498.735 69.0832 502.524 70.1883 506.22 71.2998L506.508 70.3422C502.807 69.229 499.013 68.1224 495.13 67.0239L494.858 67.9861ZM517.448 74.7879C521.354 76.042 525.139 77.3017 528.796 78.5649L529.122 77.6196C525.458 76.354 521.667 75.092 517.754 73.8358L517.448 74.7879ZM539.981 82.5866C543.83 84.0296 547.507 85.4736 551.002 86.9151L551.383 85.9907C547.877 84.5447 544.191 83.0967 540.332 81.6502L539.981 82.5866ZM561.845 91.6487C565.679 93.4272 569.218 95.1954 572.445 96.9465L572.922 96.0675C569.674 94.305 566.116 92.5275 562.266 90.7415L561.845 91.6487ZM582.553 103.067C586.311 105.655 589.292 108.175 591.451 110.602L592.198 109.938C589.968 107.431 586.919 104.86 583.12 102.244L582.553 103.067ZM595.453 120.794C595.12 122.462 594.208 124.085 592.646 125.647L593.354 126.354C595.024 124.683 596.054 122.891 596.434 120.99L595.453 120.794ZM592.646 125.647C591.458 126.835 589.874 127.963 587.904 129.033L588.381 129.912C590.408 128.811 592.079 127.629 593.354 126.354L592.646 125.647ZM577.071 133.277C573.631 134.294 569.751 135.229 565.468 136.091L565.665 137.072C569.97 136.205 573.88 135.263 577.355 134.236L577.071 133.277ZM553.697 138.134C549.954 138.696 545.999 139.219 541.85 139.706L541.967 140.699C546.125 140.211 550.09 139.686 553.845 139.123L553.697 138.134ZM529.924 140.963C526.047 141.329 522.038 141.671 517.907 141.991L517.984 142.988C522.12 142.668 526.135 142.325 530.018 141.958L529.924 140.963ZM506.054 142.83C502.17 143.08 498.197 143.315 494.141 143.535L494.196 144.534C498.254 144.313 502.231 144.079 506.119 143.828L506.054 142.83ZM482.11 144.137C478.205 144.317 474.237 144.486 470.211 144.645L470.25 145.644C474.278 145.485 478.249 145.316 482.156 145.136L482.11 144.137ZM458.256 145.083C454.296 145.217 450.288 145.344 446.238 145.464L446.268 146.464C450.319 146.344 454.328 146.217 458.29 146.082L458.256 145.083ZM434.338 145.795C430.367 145.899 426.362 145.997 422.328 146.091L422.351 147.09C426.386 146.997 430.392 146.898 434.364 146.795L434.338 145.795ZM410.398 146.355C406.426 146.438 402.432 146.519 398.419 146.597L398.438 147.597C402.452 147.519 406.447 147.438 410.419 147.354L410.398 146.355ZM386.455 146.823C382.479 146.897 378.49 146.968 374.49 147.04L374.508 148.039C378.508 147.968 382.497 147.896 386.474 147.823L386.455 146.823ZM362.518 147.252C358.534 147.322 354.544 147.393 350.554 147.465L350.572 148.465C354.562 148.393 358.552 148.322 362.536 148.251L362.518 147.252ZM338.592 147.685C334.595 147.76 330.601 147.837 326.615 147.917L326.635 148.917C330.621 148.837 334.614 148.76 338.611 148.684L338.592 147.685ZM314.661 148.167C310.654 148.254 306.658 148.345 302.679 148.441L302.703 149.441C306.682 149.345 310.676 149.254 314.682 149.167L314.661 148.167ZM290.718 148.745C286.708 148.853 282.719 148.966 278.756 149.086L278.786 150.085C282.748 149.965 286.736 149.852 290.745 149.744L290.718 148.745ZM266.772 149.472C262.769 149.61 258.797 149.755 254.861 149.91L254.9 150.909C258.834 150.755 262.804 150.609 266.806 150.472L266.772 149.472ZM242.836 150.415C238.821 150.596 234.85 150.787 230.929 150.99L230.981 151.989C234.899 151.786 238.868 151.594 242.881 151.414L242.836 150.415ZM218.946 151.659C214.887 151.903 210.892 152.162 206.967 152.436L207.037 153.434C210.959 153.159 214.95 152.901 219.006 152.658L218.946 151.659ZM195.127 153.332C191.032 153.667 187.027 154.022 183.121 154.4L183.217 155.395C187.118 155.018 191.118 154.663 195.209 154.329L195.127 153.332ZM171.167 155.663C167.082 156.135 163.128 156.636 159.318 157.169L159.456 158.16C163.258 157.628 167.204 157.128 171.281 156.657L171.167 155.663ZM147.56 158.997C143.43 159.712 139.516 160.474 135.838 161.289L136.054 162.265C139.715 161.454 143.613 160.695 147.73 159.983L147.56 158.997ZM124.209 164.282C119.899 165.58 116.075 166.988 112.79 168.517L113.212 169.424C116.443 167.919 120.22 166.528 124.497 165.24L124.209 164.282ZM102.804 175.145C101.253 176.76 100.143 178.489 99.5257 180.342L100.474 180.658C101.036 178.973 102.056 177.368 103.525 175.838L102.804 175.145ZM99.5257 180.342C98.8285 182.433 98.6044 184.469 98.8233 186.449L99.8172 186.339C99.6153 184.513 99.8196 182.622 100.474 180.658L99.5257 180.342ZM104.495 196.976C106.991 199.487 110.237 201.879 114.105 204.173L114.616 203.313C110.794 201.046 107.623 198.704 105.204 196.271L104.495 196.976ZM124.813 209.632C128.246 211.166 131.952 212.661 135.889 214.124L136.238 213.187C132.316 211.73 128.631 210.242 125.221 208.719L124.813 209.632ZM147.137 218.029C150.802 219.224 154.608 220.401 158.528 221.563L158.812 220.604C154.899 219.445 151.103 218.27 147.447 217.078L147.137 218.029ZM169.999 224.839C173.769 225.88 177.616 226.912 181.519 227.937L181.773 226.969C177.873 225.945 174.031 224.915 170.266 223.875L169.999 224.839ZM193.069 230.914C196.895 231.885 200.756 232.853 204.635 233.819L204.877 232.848C200.999 231.882 197.139 230.915 193.315 229.945L193.069 230.914ZM216.206 236.691C220.065 237.647 223.926 238.605 227.772 239.567L228.014 238.597C224.167 237.635 220.306 236.677 216.447 235.72L216.206 236.691ZM239.321 242.484C243.201 243.477 247.048 244.475 250.845 245.483L251.102 244.517C247.301 243.508 243.451 242.508 239.569 241.516L239.321 242.484ZM262.333 248.61C266.23 249.701 270.05 250.805 273.772 251.925L274.06 250.967C270.331 249.845 266.505 248.74 262.603 247.647L262.333 248.61ZM285.138 255.505C289.046 256.799 292.804 258.117 296.383 259.463L296.735 258.527C293.142 257.175 289.371 255.853 285.452 254.556L285.138 255.505ZM307.395 263.963C311.23 265.68 314.75 267.445 317.904 269.263L318.404 268.397C315.214 266.558 311.662 264.778 307.803 263.051L307.395 263.963ZM327.626 276.089C330.948 279.053 333.266 282.138 334.44 285.367L335.379 285.025C334.131 281.593 331.693 278.377 328.292 275.343L327.626 276.089ZM333.995 296.606C333.309 298.257 332.349 299.957 331.094 301.709L331.906 302.291C333.199 300.487 334.199 298.721 334.919 296.99L333.995 296.606ZM331.094 301.709C329.95 303.305 328.673 304.896 327.272 306.482L328.021 307.144C329.442 305.536 330.741 303.918 331.906 302.291L331.094 301.709ZM318.469 315.061C315.487 317.62 312.218 320.162 308.699 322.683L309.282 323.496C312.82 320.96 316.113 318.401 319.121 315.819L318.469 315.061ZM298.406 329.58C295.019 331.714 291.476 333.832 287.803 335.934L288.299 336.802C291.984 334.694 295.539 332.568 298.939 330.426L298.406 329.58ZM276.946 341.905C273.353 343.811 269.67 345.701 265.916 347.575L266.363 348.47C270.123 346.592 273.813 344.698 277.415 342.788L276.946 341.905ZM254.763 353.009C251.056 354.773 247.303 356.523 243.521 358.257L243.938 359.166C247.724 357.43 251.481 355.679 255.193 353.912L254.763 353.009ZM232.213 363.362C228.435 365.044 224.645 366.711 220.86 368.362L221.26 369.278C225.046 367.627 228.839 365.959 232.62 364.275L232.213 363.362ZM209.477 373.29C205.65 374.937 201.846 376.566 198.083 378.178L198.476 379.097C202.24 377.486 206.045 375.856 209.873 374.208L209.477 373.29ZM186.669 383.072C182.794 384.739 178.984 386.385 175.262 388.009L175.662 388.926C179.382 387.302 183.19 385.657 187.064 383.991L186.669 383.072ZM163.89 393.037C159.985 394.79 156.214 396.517 152.606 398.215L153.032 399.12C156.633 397.425 160.399 395.701 164.3 393.949L163.89 393.037ZM141.488 403.64C137.504 405.666 133.817 407.649 130.482 409.587L130.985 410.452C134.3 408.525 137.97 406.551 141.941 404.531L141.488 403.64ZM120.037 416.41C115.897 419.558 112.944 422.608 111.543 425.557L112.446 425.986C113.743 423.257 116.54 420.326 120.642 417.206L120.037 416.41ZM115.238 436.8C116.716 437.892 118.562 438.943 120.793 439.955L121.207 439.045C119.021 438.053 117.24 437.035 115.832 435.995L115.238 436.8ZM120.793 439.955C122.501 440.731 124.296 441.461 126.17 442.15L126.515 441.211C124.662 440.53 122.89 439.809 121.207 439.045L120.793 439.955ZM137.25 445.552C140.86 446.479 144.659 447.309 148.614 448.057L148.8 447.075C144.863 446.329 141.084 445.504 137.499 444.583L137.25 445.552ZM160.037 449.951C163.787 450.495 167.635 450.988 171.559 451.441L171.673 450.447C167.758 449.995 163.919 449.504 160.181 448.961L160.037 449.951ZM183.076 452.647C186.882 453.01 190.734 453.348 194.614 453.67L194.696 452.674C190.82 452.352 186.972 452.014 183.171 451.651L183.076 452.647ZM206.165 454.587C210.012 454.882 213.869 455.171 217.712 455.463L217.787 454.466C213.943 454.174 210.089 453.885 206.241 453.59L206.165 454.587ZM229.261 456.363C233.144 456.677 236.996 457.003 240.796 457.353L240.887 456.357C237.083 456.007 233.228 455.68 229.341 455.366L229.261 456.363ZM252.289 458.508C256.215 458.941 260.057 459.412 263.791 459.932L263.929 458.941C260.184 458.42 256.332 457.948 252.399 457.514L252.289 458.508ZM275.198 461.75C279.15 462.472 282.93 463.273 286.501 464.171L286.744 463.201C283.149 462.297 279.348 461.492 275.377 460.766L275.198 461.75ZM297.49 467.51C301.375 468.941 304.856 470.555 307.864 472.384L308.384 471.529C305.307 469.659 301.766 468.019 297.836 466.571L297.49 467.51ZM316.431 479.813C318.711 482.834 320.106 486.268 320.476 490.199L321.471 490.105C321.084 485.983 319.617 482.374 317.229 479.211L316.431 479.813ZM319.086 501.401C318.554 503.125 317.876 504.923 317.043 506.797L317.957 507.203C318.804 505.297 319.497 503.462 320.041 501.695L319.086 501.401ZM317.043 506.797C316.295 508.48 315.428 510.201 314.45 511.956L315.323 512.443C316.315 510.665 317.195 508.917 317.957 507.203L317.043 506.797ZM308.097 521.76C305.909 524.752 303.467 527.808 300.799 530.909L301.557 531.561C304.24 528.443 306.699 525.367 308.904 522.35L308.097 521.76ZM292.868 539.582C290.222 542.322 287.428 545.082 284.506 547.85L285.194 548.576C288.126 545.799 290.93 543.028 293.587 540.277L292.868 539.582ZM275.825 555.773C272.932 558.32 269.948 560.864 266.887 563.395L267.524 564.166C270.593 561.628 273.585 559.077 276.486 556.523L275.825 555.773ZM257.734 570.752C254.672 573.146 251.553 575.52 248.391 577.866L248.987 578.669C252.155 576.318 255.281 573.939 258.35 571.54L257.734 570.752ZM238.875 584.75C235.675 587.008 232.446 589.231 229.2 591.411L229.757 592.241C233.009 590.057 236.245 587.83 239.452 585.567L238.875 584.75ZM219.371 597.847C216.044 599.97 212.714 602.041 209.394 604.05L209.912 604.905C213.239 602.892 216.576 600.818 219.909 598.69L219.371 597.847ZM199.271 610.004C195.814 611.977 192.385 613.872 188.998 615.68L189.469 616.562C192.864 614.75 196.302 612.85 199.766 610.872L199.271 610.004ZM178.55 621.048C174.915 622.838 171.354 624.509 167.888 626.047L168.294 626.961C171.773 625.417 175.346 623.741 178.991 621.945L178.55 621.048ZM157.019 630.548C153.152 632.024 149.458 633.289 145.972 634.322L146.256 635.28C149.77 634.24 153.489 632.966 157.375 631.482L157.019 630.548ZM134.53 636.971C130.031 637.658 126.15 637.734 123.005 637.139L122.819 638.122C126.115 638.745 130.119 638.656 134.681 637.959L134.53 636.971ZM114.524 630.778C113.516 628.017 113.503 624.296 114.729 619.467L113.76 619.221C112.508 624.15 112.481 628.097 113.584 631.12L114.524 630.778ZM118.736 608.657C119.534 606.936 120.435 605.129 121.442 603.235L120.558 602.765C119.545 604.674 118.636 606.497 117.828 608.237L118.736 608.657ZM121.442 603.235C122.328 601.567 123.379 599.936 124.591 598.342L123.795 597.737C122.553 599.371 121.472 601.047 120.558 602.765L121.442 603.235ZM132.934 589.863C135.828 587.498 139.114 585.228 142.768 583.05L142.257 582.191C138.567 584.39 135.239 586.688 132.301 589.089L132.934 589.863ZM153.42 577.434C156.93 575.785 160.67 574.197 164.626 572.667L164.265 571.734C160.29 573.271 156.529 574.869 152.995 576.529L153.42 577.434ZM175.887 568.656C179.57 567.445 183.4 566.275 187.366 565.145L187.093 564.183C183.114 565.316 179.272 566.49 175.575 567.706L175.887 568.656ZM199.208 561.99C202.961 561.053 206.815 560.148 210.764 559.272L210.548 558.296C206.59 559.173 202.728 560.081 198.966 561.019L199.208 561.99ZM222.675 556.776C226.525 556.014 230.453 555.277 234.453 554.564L234.278 553.579C230.272 554.293 226.337 555.032 222.48 555.795L222.675 556.776ZM246.411 552.539C250.312 551.912 254.273 551.305 258.291 550.72L258.146 549.73C254.124 550.317 250.158 550.924 246.252 551.552L246.411 552.539ZM270.301 549.05C274.228 548.53 278.203 548.028 282.22 547.543L282.1 546.55C278.079 547.035 274.101 547.538 270.17 548.059L270.301 549.05ZM294.287 546.154C298.228 545.721 302.206 545.304 306.218 544.902L306.118 543.907C302.104 544.309 298.123 544.727 294.178 545.16L294.287 546.154ZM318.336 543.744C322.286 543.383 326.266 543.037 330.27 542.704L330.187 541.707C326.18 542.04 322.198 542.387 318.245 542.748L318.336 543.744ZM342.357 541.745C346.339 541.444 350.341 541.156 354.363 540.88L354.295 539.882C350.271 540.158 346.266 540.447 342.282 540.748L342.357 541.745ZM366.418 540.092C370.424 539.843 374.447 539.605 378.482 539.379L378.426 538.38C374.389 538.607 370.364 538.845 366.356 539.094L366.418 540.092ZM390.52 538.738C394.541 538.535 398.571 538.343 402.61 538.161L402.565 537.162C398.525 537.344 394.492 537.536 390.47 537.739L390.52 538.738ZM414.651 537.649C418.67 537.488 422.695 537.336 426.721 537.194L426.686 536.195C422.658 536.337 418.632 536.488 414.611 536.649L414.651 537.649ZM438.793 536.796C442.815 536.672 446.838 536.557 450.858 536.451L450.831 535.451C446.81 535.558 442.786 535.673 438.762 535.796L438.793 536.796ZM462.928 536.157C466.962 536.067 470.991 535.985 475.011 535.911L474.993 534.911C470.971 534.985 466.941 535.067 462.906 535.157L462.928 536.157ZM487.047 535.712C491.099 535.653 495.139 535.601 499.167 535.556L499.156 534.556C495.127 534.601 491.085 534.653 487.033 534.712L487.047 535.712ZM511.211 535.444C515.262 535.414 519.296 535.39 523.311 535.373L523.307 534.373C519.291 534.39 515.255 534.414 511.204 534.444L511.211 535.444ZM535.384 535.342C539.425 535.338 543.443 535.34 547.436 535.349L547.438 534.349C543.444 534.34 539.425 534.338 535.383 534.342L535.384 535.342ZM559.555 535.393C563.581 535.414 567.578 535.441 571.542 535.473L571.55 534.473C567.585 534.441 563.588 534.414 559.56 534.393L559.555 535.393ZM583.719 535.59C587.74 535.634 591.722 535.684 595.662 535.739L595.676 534.739C591.735 534.684 587.752 534.635 583.73 534.59L583.719 535.59ZM607.877 535.924C611.907 535.991 615.887 536.063 619.813 536.139L619.832 535.139C615.906 535.063 611.925 534.991 607.894 534.925L607.877 535.924ZM632.034 536.391C636.065 536.48 640.031 536.572 643.926 536.668L643.951 535.668C640.055 535.573 636.088 535.48 632.056 535.391L632.034 536.391ZM656.189 536.986C660.259 537.097 664.24 537.211 668.126 537.327L668.155 536.327C664.269 536.211 660.287 536.097 656.216 535.986L656.189 536.986ZM680.303 537.707C684.469 537.842 688.505 537.979 692.4 538.117L692.435 537.117C688.539 536.98 684.503 536.843 680.335 536.707L680.303 537.707ZM704.24 538.549C708.541 538.712 712.628 538.874 716.485 539.031L716.526 538.032C712.668 537.874 708.58 537.713 704.277 537.55L704.24 538.549ZM728.631 539.545C733.117 539.742 737.152 539.927 740.697 540.095L740.744 539.096C737.198 538.928 733.162 538.743 728.675 538.546L728.631 539.545ZM752.608 540.684C754.525 540.784 755.991 540.863 756.978 540.916C757.471 540.943 757.845 540.964 758.095 540.978C758.22 540.985 758.314 540.99 758.377 540.994C758.408 540.996 758.432 540.997 758.448 540.998C758.456 540.998 758.462 540.999 758.466 540.999C758.468 540.999 758.469 540.999 758.47 540.999C758.471 540.999 758.471 540.999 758.471 540.999C758.471 540.999 758.471 540.999 758.471 540.999C758.471 540.999 758.471 540.999 758.471 540.999C758.471 540.999 758.471 540.999 758.5 540.5C758.529 540.001 758.529 540.001 758.528 540.001C758.528 540.001 758.528 540.001 758.528 540.001C758.528 540.001 758.528 540.001 758.528 540.001C758.528 540.001 758.527 540.001 758.527 540.001C758.526 540.001 758.524 540.001 758.522 540.001C758.519 540 758.513 540 758.505 540C758.489 539.999 758.465 539.997 758.433 539.995C758.37 539.992 758.276 539.987 758.151 539.98C757.9 539.966 757.526 539.945 757.032 539.918C756.044 539.864 754.577 539.785 752.66 539.686L752.608 540.684Z" fill="#162B29"/>
<path d="M31 2C28.0837 2.00344 25.2878 3.16347 23.2256 5.22563C21.1635 7.28778 20.0035 10.0837 20 13C19.9965 15.3832 20.775 17.7018 22.216 19.6C22.216 19.6 22.516 19.995 22.565 20.052L31 30L39.439 20.047C39.483 19.994 39.784 19.6 39.784 19.6L39.785 19.597C41.2253 17.6996 42.0034 15.3821 42 13C41.9966 10.0837 40.8365 7.28778 38.7744 5.22563C36.7122 3.16347 33.9163 2.00344 31 2V2ZM31 17C30.2089 17 29.4355 16.7654 28.7777 16.3259C28.1199 15.8864 27.6072 15.2616 27.3045 14.5307C27.0017 13.7998 26.9225 12.9956 27.0769 12.2196C27.2312 11.4437 27.6122 10.731 28.1716 10.1716C28.731 9.61216 29.4437 9.2312 30.2197 9.07686C30.9956 8.92252 31.7998 9.00173 32.5307 9.30448C33.2616 9.60723 33.8864 10.1199 34.3259 10.7777C34.7654 11.4355 35 12.2089 35 13C34.9987 14.0605 34.5768 15.0771 33.827 15.827C33.0771 16.5768 32.0605 16.9987 31 17V17Z" fill="#162B29"/>
<path d="M759 507C756.084 507.003 753.288 508.163 751.226 510.226C749.163 512.288 748.003 515.084 748 518C747.997 520.383 748.775 522.702 750.216 524.6C750.216 524.6 750.516 524.995 750.565 525.052L759 535L767.439 525.047C767.483 524.994 767.784 524.6 767.784 524.6L767.785 524.597C769.225 522.7 770.003 520.382 770 518C769.997 515.084 768.837 512.288 766.774 510.226C764.712 508.163 761.916 507.003 759 507V507ZM759 522C758.209 522 757.436 521.765 756.778 521.326C756.12 520.886 755.607 520.262 755.304 519.531C755.002 518.8 754.923 517.996 755.077 517.22C755.231 516.444 755.612 515.731 756.172 515.172C756.731 514.612 757.444 514.231 758.22 514.077C758.996 513.923 759.8 514.002 760.531 514.304C761.262 514.607 761.886 515.12 762.326 515.778C762.765 516.436 763 517.209 763 518C762.999 519.06 762.577 520.077 761.827 520.827C761.077 521.577 760.06 521.999 759 522V522Z" fill="#162B29"/>
<path d="M733.64 546.888C733.088 546.888 732.591 546.983 732.149 547.175C731.712 547.362 731.338 547.635 731.028 547.995C730.723 548.351 730.488 548.781 730.324 549.287C730.16 549.793 730.078 550.363 730.078 550.996C730.078 551.835 730.208 552.564 730.468 553.184C730.732 553.799 731.124 554.275 731.644 554.612C732.168 554.95 732.822 555.118 733.605 555.118C734.052 555.118 734.471 555.082 734.863 555.009C735.26 554.931 735.645 554.836 736.019 554.722V555.733C735.654 555.87 735.271 555.97 734.87 556.034C734.469 556.103 733.993 556.137 733.441 556.137C732.425 556.137 731.575 555.927 730.892 555.508C730.213 555.084 729.702 554.487 729.36 553.717C729.023 552.947 728.854 552.037 728.854 550.989C728.854 550.233 728.959 549.542 729.169 548.918C729.383 548.289 729.693 547.747 730.099 547.291C730.509 546.835 731.01 546.484 731.603 546.238C732.2 545.988 732.883 545.862 733.653 545.862C734.159 545.862 734.647 545.912 735.116 546.013C735.586 546.113 736.009 546.257 736.388 546.443L735.923 547.428C735.604 547.282 735.253 547.157 734.87 547.052C734.492 546.942 734.082 546.888 733.64 546.888ZM741.517 548.385C742.411 548.385 743.074 548.585 743.507 548.986C743.94 549.387 744.156 550.028 744.156 550.907V556H743.329L743.11 554.893H743.055C742.846 555.166 742.627 555.396 742.399 555.583C742.171 555.765 741.907 555.904 741.606 556C741.31 556.091 740.945 556.137 740.512 556.137C740.057 556.137 739.651 556.057 739.296 555.897C738.945 555.738 738.667 555.496 738.462 555.173C738.261 554.849 738.161 554.439 738.161 553.942C738.161 553.195 738.457 552.621 739.05 552.22C739.642 551.819 740.544 551.6 741.757 551.563L743.049 551.509V551.051C743.049 550.404 742.91 549.95 742.632 549.69C742.354 549.431 741.962 549.301 741.456 549.301C741.064 549.301 740.69 549.358 740.335 549.472C739.979 549.586 739.642 549.72 739.323 549.875L738.974 549.014C739.312 548.84 739.699 548.692 740.137 548.569C740.574 548.446 741.034 548.385 741.517 548.385ZM743.035 552.309L741.893 552.356C740.959 552.393 740.301 552.546 739.918 552.814C739.535 553.083 739.344 553.464 739.344 553.956C739.344 554.384 739.473 554.701 739.733 554.906C739.993 555.111 740.337 555.214 740.765 555.214C741.431 555.214 741.975 555.029 742.399 554.66C742.823 554.291 743.035 553.737 743.035 552.999V552.309ZM748.978 552.165L746.387 548.508H747.686L749.662 551.393L751.63 548.508H752.916L750.325 552.165L753.059 556H751.76L749.662 552.944L747.549 556H746.264L748.978 552.165ZM758.025 548.385C758.918 548.385 759.581 548.585 760.014 548.986C760.447 549.387 760.663 550.028 760.663 550.907V556H759.836L759.618 554.893H759.563C759.353 555.166 759.135 555.396 758.907 555.583C758.679 555.765 758.414 555.904 758.114 556C757.817 556.091 757.453 556.137 757.02 556.137C756.564 556.137 756.159 556.057 755.803 555.897C755.452 555.738 755.174 555.496 754.969 555.173C754.769 554.849 754.668 554.439 754.668 553.942C754.668 553.195 754.965 552.621 755.557 552.22C756.149 551.819 757.052 551.6 758.264 551.563L759.556 551.509V551.051C759.556 550.404 759.417 549.95 759.139 549.69C758.861 549.431 758.469 549.301 757.963 549.301C757.571 549.301 757.198 549.358 756.842 549.472C756.487 549.586 756.149 549.72 755.83 549.875L755.482 549.014C755.819 548.84 756.206 548.692 756.644 548.569C757.081 548.446 757.542 548.385 758.025 548.385ZM759.542 552.309L758.401 552.356C757.467 552.393 756.808 552.546 756.425 552.814C756.042 553.083 755.851 553.464 755.851 553.956C755.851 554.384 755.981 554.701 756.241 554.906C756.5 555.111 756.844 555.214 757.273 555.214C757.938 555.214 758.483 555.029 758.907 554.66C759.33 554.291 759.542 553.737 759.542 552.999V552.309ZM769.321 556H768.165V549.458H765.889C765.798 550.638 765.682 551.65 765.54 552.493C765.404 553.332 765.23 554.018 765.021 554.551C764.816 555.079 764.565 555.469 764.269 555.72C763.977 555.966 763.628 556.089 763.223 556.089C763.1 556.089 762.984 556.082 762.874 556.068C762.765 556.055 762.671 556.032 762.594 556V555.139C762.653 555.157 762.715 555.171 762.779 555.18C762.847 555.189 762.918 555.193 762.99 555.193C763.196 555.193 763.382 555.109 763.551 554.94C763.724 554.767 763.879 554.507 764.016 554.161C764.157 553.815 764.282 553.377 764.392 552.849C764.501 552.315 764.597 551.689 764.679 550.969C764.765 550.244 764.841 549.424 764.904 548.508H769.321V556ZM773.493 548.508V553.218C773.493 553.309 773.491 553.427 773.486 553.573C773.482 553.715 773.475 553.867 773.466 554.031C773.457 554.191 773.448 554.346 773.438 554.496C773.434 554.642 773.427 554.763 773.418 554.858L777.506 548.508H778.9V556H777.841V551.406C777.841 551.26 777.843 551.074 777.848 550.846C777.852 550.618 777.859 550.395 777.868 550.176C777.877 549.952 777.884 549.779 777.889 549.656L773.814 556H772.413V548.508H773.493ZM783.155 548.508V551.652H787.332V548.508H788.467V556H787.332V552.616H783.155V556H782.013V548.508H783.155Z" fill="black"/>
</svg>
