<svg width="790" height="639" viewBox="0 0 790 639" fill="none" xmlns="http://www.w3.org/2000/svg">
<path d="M5.7627 50L2.40625 41.1543H2.35156C2.36979 41.3411 2.38574 41.569 2.39941 41.8379C2.41309 42.1068 2.42448 42.4007 2.43359 42.7197C2.44271 43.0342 2.44727 43.3555 2.44727 43.6836V50H1.36719V40.0059H3.08984L6.25488 48.3184H6.30273L9.51562 40.0059H11.2246V50H10.0762V43.6016C10.0762 43.3053 10.0807 43.0091 10.0898 42.7129C10.099 42.4121 10.1104 42.1296 10.124 41.8652C10.1377 41.5964 10.1514 41.3639 10.165 41.168H10.1104L6.71289 50H5.7627ZM13.3055 42.5078H14.5223L16.1766 46.8555C16.2723 47.1107 16.3611 47.3568 16.4432 47.5938C16.5252 47.8262 16.5981 48.0495 16.6619 48.2637C16.7257 48.4779 16.7758 48.6852 16.8123 48.8857H16.8602C16.924 48.6579 17.0151 48.3594 17.1336 47.9902C17.2521 47.6165 17.3797 47.236 17.5164 46.8486L19.0818 42.5078H20.3055L17.0447 51.1006C16.8715 51.5609 16.6687 51.9619 16.4363 52.3037C16.2085 52.6455 15.9305 52.9076 15.6023 53.0898C15.2742 53.2767 14.8777 53.3701 14.4129 53.3701C14.1987 53.3701 14.0096 53.3564 13.8455 53.3291C13.6814 53.3063 13.5402 53.279 13.4217 53.2471V52.3379C13.5219 52.3607 13.6427 52.3812 13.784 52.3994C13.9298 52.4176 14.0802 52.4268 14.2352 52.4268C14.5177 52.4268 14.7615 52.3721 14.9666 52.2627C15.1762 52.1579 15.3562 52.0029 15.5066 51.7979C15.657 51.5928 15.7869 51.349 15.8963 51.0664L16.3064 50.0137L13.3055 42.5078ZM25.7223 42.3711C26.6565 42.3711 27.4016 42.6924 27.9576 43.335C28.5136 43.9775 28.7916 44.9437 28.7916 46.2334C28.7916 47.0856 28.664 47.8011 28.4088 48.3799C28.1536 48.9587 27.7936 49.3962 27.3287 49.6924C26.8684 49.9886 26.3238 50.1367 25.6949 50.1367C25.2984 50.1367 24.9498 50.0843 24.649 49.9795C24.3482 49.8747 24.0908 49.7334 23.8766 49.5557C23.6624 49.3779 23.4846 49.1842 23.3434 48.9746H23.2613C23.275 49.1523 23.291 49.3665 23.3092 49.6172C23.332 49.8678 23.3434 50.0866 23.3434 50.2734V53.3496H22.2018V42.5078H23.1383L23.2887 43.6152H23.3434C23.4892 43.3874 23.6669 43.18 23.8766 42.9932C24.0862 42.8018 24.3414 42.6514 24.6422 42.542C24.9475 42.4281 25.3076 42.3711 25.7223 42.3711ZM25.524 43.3281C25.0045 43.3281 24.5852 43.4284 24.2662 43.6289C23.9518 43.8294 23.7216 44.1302 23.5758 44.5312C23.4299 44.9277 23.3525 45.4268 23.3434 46.0283V46.2471C23.3434 46.8805 23.4117 47.416 23.5484 47.8535C23.6897 48.291 23.9199 48.6237 24.2389 48.8516C24.5624 49.0794 24.9954 49.1934 25.5377 49.1934C26.0025 49.1934 26.3899 49.068 26.6998 48.8174C27.0097 48.5667 27.2398 48.2181 27.3902 47.7715C27.5452 47.3203 27.6227 46.8031 27.6227 46.2197C27.6227 45.3356 27.4495 44.6338 27.1031 44.1143C26.7613 43.5902 26.235 43.3281 25.524 43.3281ZM39.3832 42.5078V50H38.3578V45.1191C38.3578 44.9186 38.3624 44.7158 38.3715 44.5107C38.3852 44.3011 38.4011 44.0915 38.4193 43.8818H38.3783L35.89 50H34.9262L32.4994 43.8818H32.4584C32.4721 44.0915 32.4812 44.3011 32.4857 44.5107C32.4949 44.7158 32.4994 44.9323 32.4994 45.1602V50H31.4672V42.5078H32.9916L35.4115 48.6328L37.8656 42.5078H39.3832ZM45.2443 42.3848C46.1376 42.3848 46.8007 42.5853 47.2336 42.9863C47.6665 43.3874 47.883 44.0277 47.883 44.9072V50H47.0559L46.8371 48.8926H46.7824C46.5728 49.166 46.354 49.3962 46.1262 49.583C45.8983 49.7653 45.634 49.9043 45.3332 50C45.037 50.0911 44.6724 50.1367 44.2395 50.1367C43.7837 50.1367 43.3781 50.057 43.0227 49.8975C42.6717 49.738 42.3937 49.4964 42.1887 49.1729C41.9882 48.8493 41.8879 48.4391 41.8879 47.9424C41.8879 47.195 42.1841 46.6208 42.7766 46.2197C43.369 45.8187 44.2714 45.5999 45.4836 45.5635L46.7756 45.5088V45.0508C46.7756 44.4036 46.6366 43.9502 46.3586 43.6904C46.0806 43.4307 45.6887 43.3008 45.1828 43.3008C44.7909 43.3008 44.4172 43.3577 44.0617 43.4717C43.7062 43.5856 43.369 43.7201 43.05 43.875L42.7014 43.0137C43.0386 42.8405 43.426 42.6924 43.8635 42.5693C44.301 42.4463 44.7613 42.3848 45.2443 42.3848ZM46.7619 46.3086L45.6203 46.3564C44.6861 46.3929 44.0275 46.5456 43.6447 46.8145C43.2619 47.0833 43.0705 47.4639 43.0705 47.9561C43.0705 48.3844 43.2004 48.7012 43.4602 48.9062C43.7199 49.1113 44.064 49.2139 44.4924 49.2139C45.1577 49.2139 45.7023 49.0293 46.1262 48.6602C46.55 48.291 46.7619 47.7373 46.7619 46.999V46.3086ZM52.0625 42.5078V45.6523H56.2393V42.5078H57.374V50H56.2393V46.6162H52.0625V50H50.9209V42.5078H52.0625ZM63.4813 50.1367C62.8068 50.1367 62.212 49.9977 61.6971 49.7197C61.1821 49.4417 60.7811 49.0179 60.4939 48.4482C60.2068 47.8786 60.0633 47.1608 60.0633 46.2949C60.0633 45.388 60.2137 44.6475 60.5145 44.0732C60.8198 43.4945 61.2391 43.0661 61.7723 42.7881C62.3055 42.5101 62.9116 42.3711 63.5906 42.3711C63.9643 42.3711 64.3243 42.4098 64.6707 42.4873C65.0216 42.5602 65.3087 42.6536 65.532 42.7676L65.1902 43.7178C64.9624 43.6266 64.698 43.5446 64.3973 43.4717C64.101 43.3988 63.823 43.3623 63.5633 43.3623C63.0438 43.3623 62.6108 43.474 62.2645 43.6973C61.9227 43.9206 61.6652 44.2487 61.492 44.6816C61.3234 45.1146 61.2391 45.6478 61.2391 46.2812C61.2391 46.8874 61.3211 47.4046 61.4852 47.833C61.6538 48.2614 61.9021 48.5895 62.2303 48.8174C62.563 49.0407 62.9777 49.1523 63.4744 49.1523C63.8709 49.1523 64.2286 49.1113 64.5477 49.0293C64.8667 48.9427 65.1561 48.8424 65.4158 48.7285V49.7402C65.1652 49.8678 64.8849 49.9658 64.575 50.0342C64.2697 50.1025 63.9051 50.1367 63.4813 50.1367ZM72.2613 42.5078H73.5123L70.2789 46.124L73.7721 50H72.4391L69.0348 46.1992V50H67.8932V42.5078H69.0348V46.1445L72.2613 42.5078Z" fill="black"/>
<path d="M30.3892 33.7583C29.9796 33.8195 29.697 34.2012 29.7582 34.6109C29.8194 35.0205 30.2011 35.303 30.6108 35.2419L30.3892 33.7583ZM121 603L121.662 603.352L121 603ZM758.457 541.249C758.871 541.272 759.225 540.956 759.249 540.543C759.272 540.129 758.956 539.775 758.543 539.751L758.457 541.249ZM30.6108 35.2419C32.553 34.9518 34.4991 34.6689 36.449 34.3929L36.2389 32.9077C34.2852 33.1842 32.3353 33.4677 30.3892 33.7583L30.6108 35.2419ZM48.192 32.821C52.1058 32.3266 56.033 31.8595 59.9723 31.4191L59.8056 29.9284C55.8593 30.3696 51.925 30.8375 48.004 31.3329L48.192 32.821ZM71.7504 30.1848C75.6806 29.8 79.6212 29.441 83.571 29.1072L83.4447 27.6125C79.4884 27.9469 75.5411 28.3065 71.6043 28.6919L71.7504 30.1848ZM95.3753 28.1857C99.3168 27.9031 103.266 27.6448 107.222 27.4103L107.133 25.9129C103.171 26.1478 99.2158 26.4065 95.268 26.6895L95.3753 28.1857ZM119.046 26.7801C122.993 26.5933 126.945 26.4293 130.9 26.2878L130.846 24.7888C126.885 24.9305 122.928 25.0947 118.975 25.2818L119.046 26.7801ZM142.745 25.9307C146.695 25.8337 150.647 25.7584 154.6 25.7043L154.58 24.2044C150.621 24.2586 146.664 24.334 142.709 24.4312L142.745 25.9307ZM166.458 25.6051C170.411 25.5928 174.362 25.6012 178.313 25.6298L178.324 24.1298C174.368 24.1013 170.411 24.0928 166.454 24.1051L166.458 25.6051ZM190.172 25.7755C194.126 25.8439 198.078 25.932 202.025 26.0392L202.066 24.5398C198.114 24.4324 194.157 24.3442 190.198 24.2757L190.172 25.7755ZM213.874 26.4185C217.832 26.5642 221.783 26.7287 225.728 26.9114L225.797 25.413C221.848 25.2301 217.892 25.0654 213.929 24.9195L213.874 26.4185ZM237.556 27.5145C241.517 27.7349 245.469 27.9733 249.411 28.229L249.508 26.7321C245.561 26.4761 241.605 26.2375 237.64 26.0168L237.556 27.5145ZM261.21 29.0479C265.174 29.3411 269.126 29.6514 273.066 29.9783L273.19 28.4834C269.246 28.1561 265.289 27.8455 261.32 27.552L261.21 29.0479ZM284.843 31.0082C288.806 31.3723 292.754 31.7529 296.685 32.1493L296.835 30.6569C292.9 30.26 288.948 29.879 284.981 29.5145L284.843 31.0082ZM308.444 33.3871C312.402 33.8213 316.342 34.2711 320.261 34.736L320.438 33.2465C316.514 32.781 312.57 32.3307 308.607 31.896L308.444 33.3871ZM331.998 36.1802C335.951 36.6842 339.882 37.2032 343.789 37.7365L343.992 36.2503C340.08 35.7164 336.145 35.1968 332.188 34.6922L331.998 36.1802ZM355.496 39.3874C359.445 39.9621 363.367 40.5511 367.261 41.1537L367.49 39.6713C363.592 39.0681 359.666 38.4784 355.712 37.903L355.496 39.3874ZM378.929 43.0136C382.875 43.6611 386.789 44.3222 390.669 44.996L390.925 43.5182C387.041 42.8435 383.122 42.1816 379.171 41.5334L378.929 43.0136ZM402.28 47.0692C406.226 47.7932 410.134 48.53 414.001 49.2788L414.286 47.8062C410.414 47.0564 406.502 46.3187 402.55 45.5938L402.28 47.0692ZM425.534 51.5723C429.483 52.3783 433.385 53.1964 437.237 54.0256L437.553 52.5592C433.695 51.7288 429.788 50.9096 425.834 50.1026L425.534 51.5723ZM448.762 56.5721C452.68 57.4608 456.542 58.3605 460.344 59.2701L460.693 57.8113C456.885 56.9003 453.017 55.9992 449.093 55.1092L448.762 56.5721ZM471.871 62.103C475.737 63.0793 479.535 64.0651 483.26 65.0591L483.647 63.6098C479.915 62.614 476.111 61.6265 472.238 60.6487L471.871 62.103ZM494.79 68.2267C498.666 69.3234 502.454 70.4281 506.148 71.5392L506.58 70.1028C502.877 68.9892 499.082 67.8822 495.198 66.7833L494.79 68.2267ZM517.372 75.026C521.276 76.2795 525.059 77.5387 528.714 78.8012L529.204 77.3833C525.538 76.1171 521.745 74.8544 517.831 73.5978L517.372 75.026ZM539.893 82.8207C543.74 84.2628 547.414 85.7059 550.906 87.1462L551.478 85.7595C547.97 84.3125 544.281 82.8635 540.42 81.4161L539.893 82.8207ZM561.74 91.8755C565.57 93.6521 569.104 95.418 572.326 97.1662L573.041 95.8477C569.788 94.0825 566.225 92.3026 562.371 90.5147L561.74 91.8755ZM582.411 103.273C586.159 105.854 589.123 108.361 591.265 110.769L592.385 109.772C590.138 107.245 587.071 104.661 583.261 102.038L582.411 103.273ZM595.208 120.745C594.886 122.355 594.004 123.935 592.47 125.47L593.53 126.53C595.228 124.833 596.287 122.998 596.679 121.039L595.208 120.745ZM592.47 125.47C591.303 126.636 589.74 127.751 587.784 128.813L588.5 130.132C590.541 129.023 592.234 127.827 593.53 126.53L592.47 125.47ZM577 133.037C573.569 134.051 569.696 134.985 565.418 135.846L565.714 137.317C570.025 136.449 573.942 135.505 577.426 134.476L577 133.037ZM553.66 137.886C549.919 138.448 545.968 138.971 541.821 139.458L541.996 140.948C546.156 140.459 550.124 139.934 553.882 139.37L553.66 137.886ZM529.9 140.714C526.025 141.08 522.017 141.422 517.887 141.742L518.003 143.238C522.141 142.917 526.157 142.574 530.041 142.207L529.9 140.714ZM506.038 142.58C502.155 142.831 498.182 143.066 494.128 143.286L494.209 144.784C498.268 144.563 502.246 144.328 506.135 144.077L506.038 142.58ZM482.098 143.888C478.194 144.067 474.227 144.236 470.201 144.395L470.26 145.894C474.289 145.735 478.26 145.566 482.167 145.386L482.098 143.888ZM458.248 144.833C454.288 144.968 450.28 145.094 446.231 145.214L446.275 146.714C450.327 146.594 454.337 146.467 458.299 146.332L458.248 144.833ZM434.331 145.545C430.361 145.649 426.356 145.747 422.322 145.841L422.357 147.34C426.392 147.246 430.398 147.148 434.371 147.045L434.331 145.545ZM410.393 146.105C406.421 146.189 402.427 146.269 398.414 146.347L398.443 147.847C402.457 147.769 406.452 147.688 410.424 147.604L410.393 146.105ZM386.451 146.573C382.475 146.647 378.485 146.718 374.486 146.79L374.513 148.289C378.512 148.218 382.502 148.146 386.478 148.073L386.451 146.573ZM362.514 147.002C358.53 147.072 354.54 147.143 350.549 147.215L350.576 148.715C354.567 148.643 358.556 148.572 362.541 148.501L362.514 147.002ZM338.587 147.435C334.59 147.51 330.596 147.587 326.61 147.667L326.64 149.167C330.626 149.087 334.619 149.01 338.615 148.934L338.587 147.435ZM314.655 147.917C310.648 148.004 306.653 148.095 302.673 148.191L302.709 149.691C306.687 149.595 310.682 149.504 314.688 149.416L314.655 147.917ZM290.712 148.495C286.701 148.603 282.712 148.716 278.748 148.836L278.793 150.335C282.756 150.215 286.743 150.102 290.752 149.994L290.712 148.495ZM266.764 149.222C262.76 149.36 258.787 149.505 254.851 149.66L254.91 151.159C258.843 151.004 262.813 150.859 266.815 150.722L266.764 149.222ZM242.825 150.165C238.809 150.346 234.837 150.537 230.916 150.741L230.994 152.239C234.911 152.036 238.879 151.844 242.892 151.664L242.825 150.165ZM218.931 151.41C214.872 151.654 210.876 151.912 206.95 152.187L207.054 153.683C210.975 153.409 214.966 153.151 219.021 152.907L218.931 151.41ZM195.107 153.083C191.011 153.418 187.005 153.773 183.097 154.151L183.241 155.644C187.141 155.267 191.14 154.912 195.229 154.578L195.107 153.083ZM171.138 155.415C167.051 155.887 163.096 156.388 159.283 156.922L159.491 158.407C163.291 157.876 167.234 157.376 171.31 156.905L171.138 155.415ZM147.517 158.751C143.384 159.466 139.467 160.229 135.784 161.045L136.108 162.509C139.765 161.699 143.659 160.941 147.773 160.229L147.517 158.751ZM124.137 164.043C119.819 165.343 115.983 166.755 112.684 168.29L113.318 169.65C116.535 168.152 120.3 166.765 124.569 165.479L124.137 164.043ZM102.624 174.972C101.053 176.608 99.9199 178.369 99.2885 180.263L100.712 180.737C101.259 179.094 102.257 177.52 103.706 176.011L102.624 174.972ZM99.2885 180.263C98.5807 182.386 98.3517 184.458 98.5748 186.476L100.066 186.312C99.8681 184.523 100.067 182.67 100.712 180.737L99.2885 180.263ZM104.317 197.152C106.833 199.683 110.098 202.087 113.978 204.388L114.743 203.098C110.933 200.838 107.781 198.508 105.381 196.095L104.317 197.152ZM124.711 209.86C128.15 211.397 131.861 212.894 135.802 214.358L136.325 212.952C132.408 211.497 128.727 210.012 125.323 208.491L124.711 209.86ZM147.06 218.266C150.727 219.463 154.535 220.64 158.457 221.803L158.883 220.365C154.972 219.205 151.178 218.032 147.525 216.84L147.06 218.266ZM169.933 225.08C173.704 226.122 177.551 227.153 181.456 228.178L181.837 226.728C177.937 225.704 174.096 224.674 170.332 223.634L169.933 225.08ZM193.008 231.156C196.834 232.128 200.695 233.095 204.575 234.061L204.937 232.606C201.059 231.64 197.2 230.673 193.377 229.703L193.008 231.156ZM216.146 236.933C220.005 237.89 223.866 238.848 227.711 239.809L228.075 238.354C224.228 237.392 220.366 236.434 216.507 235.477L216.146 236.933ZM239.259 242.727C243.139 243.719 246.985 244.717 250.781 245.725L251.166 244.275C247.365 243.266 243.514 242.266 239.631 241.273L239.259 242.727ZM262.266 248.851C266.161 249.941 269.979 251.045 273.7 252.164L274.132 250.728C270.401 249.605 266.573 248.499 262.67 247.407L262.266 248.851ZM285.059 255.742C288.965 257.035 292.719 258.352 296.295 259.697L296.823 258.293C293.226 256.94 289.452 255.617 285.53 254.318L285.059 255.742ZM307.292 264.191C311.122 265.906 314.634 267.666 317.779 269.48L318.529 268.18C315.33 266.336 311.771 264.553 307.905 262.822L307.292 264.191ZM327.46 276.276C330.762 279.222 333.049 282.275 334.205 285.452L335.614 284.94C334.348 281.457 331.879 278.208 328.459 275.156L327.46 276.276ZM333.764 296.51C333.087 298.141 332.137 299.824 330.89 301.563L332.11 302.437C333.412 300.62 334.422 298.837 335.149 297.086L333.764 296.51ZM330.89 301.563C329.752 303.152 328.481 304.736 327.084 306.317L328.209 307.31C329.635 305.696 330.938 304.071 332.11 302.437L330.89 301.563ZM318.306 314.871C315.331 317.425 312.067 319.962 308.554 322.48L309.427 323.699C312.97 321.16 316.27 318.596 319.283 316.009L318.306 314.871ZM298.273 329.368C294.889 331.5 291.35 333.617 287.679 335.717L288.423 337.019C292.11 334.91 295.669 332.782 299.073 330.637L298.273 329.368ZM276.829 341.684C273.238 343.589 269.556 345.478 265.804 347.352L266.475 348.694C270.236 346.815 273.928 344.92 277.532 343.009L276.829 341.684ZM254.656 352.783C250.95 354.547 247.198 356.296 243.417 358.029L244.042 359.393C247.829 357.657 251.588 355.905 255.3 354.137L254.656 352.783ZM232.112 363.134C228.334 364.816 224.544 366.482 220.76 368.132L221.36 369.507C225.147 367.856 228.94 366.188 232.722 364.504L232.112 363.134ZM209.378 373.06C205.551 374.707 201.748 376.337 197.984 377.948L198.575 379.327C202.338 377.715 206.143 376.085 209.971 374.438L209.378 373.06ZM186.571 382.843C182.695 384.509 178.885 386.155 175.162 387.78L175.762 389.155C179.482 387.532 183.289 385.887 187.163 384.221L186.571 382.843ZM163.788 392.809C159.881 394.563 156.109 396.29 152.5 397.989L153.139 399.346C156.738 397.651 160.502 395.928 164.402 394.177L163.788 392.809ZM141.375 403.417C137.388 405.445 133.697 407.43 130.357 409.371L131.11 410.668C134.42 408.744 138.086 406.773 142.055 404.754L141.375 403.417ZM119.886 416.211C115.736 419.366 112.744 422.445 111.317 425.45L112.672 426.093C113.942 423.419 116.7 420.518 120.794 417.405L119.886 416.211ZM115.089 437.001C116.585 438.106 118.448 439.166 120.69 440.183L121.31 438.817C119.136 437.83 117.371 436.821 115.981 435.794L115.089 437.001ZM120.69 440.183C122.404 440.961 124.205 441.694 126.083 442.384L126.601 440.977C124.753 440.297 122.987 439.578 121.31 438.817L120.69 440.183ZM137.188 445.794C140.803 446.723 144.608 447.553 148.568 448.303L148.847 446.829C144.913 446.085 141.14 445.261 137.561 444.341L137.188 445.794ZM160.001 450.198C163.753 450.743 167.604 451.236 171.53 451.689L171.702 450.199C167.788 449.747 163.952 449.256 160.217 448.714L160.001 450.198ZM183.052 452.896C186.859 453.259 190.713 453.597 194.593 453.919L194.717 452.424C190.842 452.103 186.994 451.765 183.194 451.402L183.052 452.896ZM206.145 454.836C209.993 455.131 213.85 455.42 217.693 455.712L217.806 454.216C213.961 453.924 210.108 453.635 206.26 453.34L206.145 454.836ZM229.241 456.612C233.124 456.926 236.974 457.252 240.773 457.602L240.91 456.108C237.105 455.758 233.248 455.431 229.361 455.117L229.241 456.612ZM252.262 458.756C256.186 459.19 260.025 459.66 263.757 460.179L263.964 458.694C260.216 458.172 256.362 457.7 252.427 457.265L252.262 458.756ZM275.153 461.996C279.101 462.717 282.875 463.518 286.44 464.414L286.805 462.959C283.203 462.053 279.397 461.246 275.422 460.52L275.153 461.996ZM297.404 467.744C301.277 469.172 304.743 470.779 307.734 472.597L308.513 471.315C305.42 469.435 301.863 467.789 297.922 466.337L297.404 467.744ZM316.232 479.964C318.485 482.949 319.862 486.34 320.227 490.222L321.72 490.082C321.329 485.912 319.843 482.259 317.429 479.06L316.232 479.964ZM318.847 501.327C318.319 503.041 317.644 504.83 316.815 506.695L318.185 507.305C319.036 505.39 319.733 503.546 320.28 501.769L318.847 501.327ZM316.815 506.695C316.07 508.371 315.207 510.085 314.231 511.834L315.541 512.565C316.536 510.781 317.42 509.026 318.185 507.305L316.815 506.695ZM307.895 521.612C305.712 524.599 303.274 527.649 300.609 530.745L301.746 531.724C304.433 528.602 306.896 525.52 309.106 522.497L307.895 521.612ZM292.688 539.408C290.045 542.146 287.254 544.903 284.335 547.669L285.366 548.758C288.3 545.978 291.107 543.205 293.767 540.451L292.688 539.408ZM275.659 555.585C272.769 558.13 269.787 560.673 266.728 563.203L267.684 564.359C270.754 561.819 273.748 559.267 276.651 556.711L275.659 555.585ZM257.58 570.556C254.52 572.948 251.402 575.321 248.242 577.665L249.136 578.87C252.306 576.518 255.433 574.138 258.504 571.737L257.58 570.556ZM238.731 584.546C235.533 586.803 232.305 589.025 229.06 591.203L229.896 592.449C233.15 590.264 236.388 588.035 239.596 585.772L238.731 584.546ZM219.237 597.636C215.912 599.759 212.583 601.828 209.265 603.836L210.042 605.119C213.37 603.105 216.709 601.029 220.044 598.9L219.237 597.636ZM199.147 609.787C195.692 611.758 192.265 613.653 188.88 615.46L189.587 616.783C192.984 614.969 196.424 613.068 199.89 611.089L199.147 609.787ZM178.439 620.823C174.807 622.613 171.249 624.282 167.787 625.818L168.395 627.189C171.877 625.644 175.453 623.966 179.102 622.169L178.439 620.823ZM156.929 630.314C153.068 631.789 149.38 633.052 145.901 634.082L146.327 635.52C149.848 634.477 153.573 633.201 157.465 631.715L156.929 630.314ZM134.492 636.724C130.009 637.409 126.159 637.481 123.051 636.894L122.773 638.367C126.107 638.998 130.141 638.906 134.718 638.206L134.492 636.724ZM114.759 630.692C113.775 627.997 113.752 624.332 114.971 619.528L113.518 619.159C112.26 624.114 112.222 628.116 113.349 631.206L114.759 630.692ZM118.962 608.763C119.759 607.046 120.658 605.243 121.662 603.352L120.338 602.648C119.322 604.56 118.411 606.387 117.602 608.131L118.962 608.763ZM121.662 603.352C122.542 601.697 123.586 600.078 124.79 598.494L123.596 597.586C122.346 599.229 121.258 600.916 120.338 602.648L121.662 603.352ZM133.092 590.057C135.975 587.701 139.251 585.438 142.896 583.265L142.129 581.976C138.43 584.181 135.092 586.485 132.143 588.895L133.092 590.057ZM153.527 577.66C157.031 576.014 160.765 574.428 164.716 572.9L164.175 571.501C160.195 573.04 156.428 574.64 152.889 576.302L153.527 577.66ZM175.965 568.893C179.645 567.683 183.471 566.515 187.435 565.386L187.024 563.943C183.043 565.077 179.197 566.252 175.497 567.468L175.965 568.893ZM199.269 562.232C203.019 561.296 206.871 560.391 210.818 559.516L210.494 558.052C206.534 558.93 202.669 559.838 198.905 560.777L199.269 562.232ZM222.723 557.022C226.572 556.26 230.498 555.523 234.497 554.81L234.234 553.333C230.226 554.047 226.29 554.786 222.432 555.55L222.723 557.022ZM246.451 552.786C250.351 552.159 254.311 551.553 258.327 550.967L258.11 549.483C254.087 550.069 250.12 550.677 246.212 551.305L246.451 552.786ZM270.334 549.298C274.26 548.778 278.233 548.276 282.25 547.791L282.07 546.302C278.048 546.787 274.069 547.29 270.137 547.811L270.334 549.298ZM294.314 546.403C298.255 545.97 302.232 545.553 306.243 545.151L306.093 543.659C302.078 544.061 298.096 544.478 294.151 544.911L294.314 546.403ZM318.358 543.993C322.308 543.632 326.287 543.286 330.291 542.953L330.167 541.458C326.159 541.791 322.176 542.138 318.222 542.499L318.358 543.993ZM342.376 541.994C346.357 541.694 350.359 541.405 354.38 541.129L354.278 539.633C350.253 539.909 346.247 540.198 342.263 540.499L342.376 541.994ZM366.433 540.341C370.439 540.092 374.461 539.855 378.496 539.628L378.412 538.131C374.374 538.357 370.349 538.595 366.34 538.844L366.433 540.341ZM390.533 538.988C394.553 538.785 398.583 538.593 402.621 538.411L402.554 536.912C398.513 537.094 394.48 537.287 390.457 537.489L390.533 538.988ZM414.661 537.898C418.68 537.737 422.704 537.586 426.73 537.444L426.677 535.945C422.649 536.087 418.622 536.239 414.601 536.4L414.661 537.898ZM438.8 537.046C442.823 536.922 446.845 536.807 450.864 536.701L450.825 535.202C446.803 535.308 442.779 535.423 438.754 535.547L438.8 537.046ZM462.934 536.407C466.967 536.317 470.996 536.235 475.016 536.161L474.988 534.661C470.966 534.735 466.936 534.817 462.9 534.907L462.934 536.407ZM487.051 535.962C491.102 535.903 495.142 535.851 499.17 535.806L499.153 534.306C495.124 534.351 491.082 534.403 487.029 534.462L487.051 535.962ZM511.213 535.694C515.263 535.664 519.297 535.64 523.312 535.623L523.305 534.123C519.289 534.14 515.254 534.164 511.202 534.194L511.213 535.694ZM535.384 535.592C539.425 535.588 543.443 535.59 547.435 535.599L547.438 534.099C543.445 534.09 539.425 534.088 535.383 534.092L535.384 535.592ZM559.553 535.643C563.58 535.664 567.576 535.691 571.54 535.723L571.552 534.223C567.587 534.191 563.589 534.164 559.561 534.143L559.553 535.643ZM583.716 535.84C587.737 535.884 591.719 535.934 595.659 535.989L595.68 534.489C591.738 534.434 587.755 534.385 583.733 534.34L583.716 535.84ZM607.873 536.174C611.903 536.241 615.883 536.313 619.808 536.389L619.837 534.889C615.91 534.813 611.929 534.742 607.898 534.675L607.873 536.174ZM632.029 536.641C636.06 536.73 640.025 536.822 643.92 536.918L643.957 535.418C640.061 535.323 636.094 535.23 632.062 535.141L632.029 536.641ZM656.182 537.236C660.252 537.347 664.233 537.461 668.118 537.577L668.163 536.078C664.276 535.962 660.294 535.848 656.223 535.737L656.182 537.236ZM680.295 537.957C684.461 538.092 688.496 538.229 692.391 538.366L692.444 536.867C688.547 536.73 684.511 536.593 680.343 536.458L680.295 537.957ZM704.23 538.799C708.531 538.962 712.618 539.123 716.475 539.281L716.536 537.782C712.678 537.625 708.59 537.463 704.287 537.3L704.23 538.799ZM728.62 539.795C733.106 539.992 737.14 540.177 740.685 540.345L740.756 538.847C737.209 538.679 733.174 538.493 728.686 538.296L728.62 539.795ZM752.595 540.934C754.512 541.034 755.977 541.112 756.964 541.166C757.457 541.193 757.831 541.214 758.081 541.228C758.206 541.235 758.3 541.24 758.363 541.243C758.394 541.245 758.418 541.247 758.434 541.248C758.442 541.248 758.447 541.248 758.451 541.249C758.453 541.249 758.455 541.249 758.456 541.249C758.456 541.249 758.457 541.249 758.457 541.249C758.457 541.249 758.457 541.249 758.457 541.249C758.457 541.249 758.457 541.249 758.457 541.249C758.457 541.249 758.457 541.249 758.5 540.5C758.543 539.751 758.543 539.751 758.543 539.751C758.543 539.751 758.543 539.751 758.543 539.751C758.543 539.751 758.542 539.751 758.542 539.751C758.542 539.751 758.542 539.751 758.541 539.751C758.54 539.751 758.539 539.751 758.537 539.751C758.533 539.751 758.527 539.75 758.519 539.75C758.503 539.749 758.479 539.748 758.448 539.746C758.384 539.742 758.29 539.737 758.164 539.73C757.914 539.716 757.54 539.695 757.046 539.668C756.058 539.614 754.591 539.536 752.673 539.436L752.595 540.934Z" fill="#162B29"/>
<path d="M31 2C28.0837 2.00344 25.2878 3.16347 23.2256 5.22563C21.1635 7.28778 20.0035 10.0837 20 13C19.9965 15.3832 20.775 17.7018 22.216 19.6C22.216 19.6 22.516 19.995 22.565 20.052L31 30L39.439 20.047C39.483 19.994 39.784 19.6 39.784 19.6L39.785 19.597C41.2253 17.6996 42.0034 15.3821 42 13C41.9966 10.0837 40.8365 7.28778 38.7744 5.22563C36.7122 3.16347 33.9163 2.00344 31 2V2ZM31 17C30.2089 17 29.4355 16.7654 28.7777 16.3259C28.1199 15.8864 27.6072 15.2616 27.3045 14.5307C27.0017 13.7998 26.9225 12.9956 27.0769 12.2196C27.2312 11.4437 27.6122 10.731 28.1716 10.1716C28.731 9.61216 29.4437 9.2312 30.2197 9.07686C30.9956 8.92252 31.7998 9.00173 32.5307 9.30448C33.2616 9.60723 33.8864 10.1199 34.3259 10.7777C34.7654 11.4355 35 12.2089 35 13C34.9987 14.0605 34.5768 15.0771 33.827 15.827C33.0771 16.5768 32.0605 16.9987 31 17V17Z" fill="#162B29"/>
<path d="M759 507C756.084 507.003 753.288 508.163 751.226 510.226C749.163 512.288 748.003 515.084 748 518C747.997 520.383 748.775 522.702 750.216 524.6C750.216 524.6 750.516 524.995 750.565 525.052L759 535L767.439 525.047C767.483 524.994 767.784 524.6 767.784 524.6L767.785 524.597C769.225 522.7 770.003 520.382 770 518C769.997 515.084 768.837 512.288 766.774 510.226C764.712 508.163 761.916 507.003 759 507V507ZM759 522C758.209 522 757.436 521.765 756.778 521.326C756.12 520.886 755.607 520.262 755.304 519.531C755.002 518.8 754.923 517.996 755.077 517.22C755.231 516.444 755.612 515.731 756.172 515.172C756.731 514.612 757.444 514.231 758.22 514.077C758.996 513.923 759.8 514.002 760.531 514.304C761.262 514.607 761.886 515.12 762.326 515.778C762.765 516.436 763 517.209 763 518C762.999 519.06 762.577 520.077 761.827 520.827C761.077 521.577 760.06 521.999 759 522V522Z" fill="#162B29"/>
<path d="M733.64 546.888C733.088 546.888 732.591 546.983 732.149 547.175C731.712 547.362 731.338 547.635 731.028 547.995C730.723 548.351 730.488 548.781 730.324 549.287C730.16 549.793 730.078 550.363 730.078 550.996C730.078 551.835 730.208 552.564 730.468 553.184C730.732 553.799 731.124 554.275 731.644 554.612C732.168 554.95 732.822 555.118 733.605 555.118C734.052 555.118 734.471 555.082 734.863 555.009C735.26 554.931 735.645 554.836 736.019 554.722V555.733C735.654 555.87 735.271 555.97 734.87 556.034C734.469 556.103 733.993 556.137 733.441 556.137C732.425 556.137 731.575 555.927 730.892 555.508C730.213 555.084 729.702 554.487 729.36 553.717C729.023 552.947 728.854 552.037 728.854 550.989C728.854 550.233 728.959 549.542 729.169 548.918C729.383 548.289 729.693 547.747 730.099 547.291C730.509 546.835 731.01 546.484 731.603 546.238C732.2 545.988 732.883 545.862 733.653 545.862C734.159 545.862 734.647 545.912 735.116 546.013C735.586 546.113 736.009 546.257 736.388 546.443L735.923 547.428C735.604 547.282 735.253 547.157 734.87 547.052C734.492 546.942 734.082 546.888 733.64 546.888ZM741.517 548.385C742.411 548.385 743.074 548.585 743.507 548.986C743.94 549.387 744.156 550.028 744.156 550.907V556H743.329L743.11 554.893H743.055C742.846 555.166 742.627 555.396 742.399 555.583C742.171 555.765 741.907 555.904 741.606 556C741.31 556.091 740.945 556.137 740.512 556.137C740.057 556.137 739.651 556.057 739.296 555.897C738.945 555.738 738.667 555.496 738.462 555.173C738.261 554.849 738.161 554.439 738.161 553.942C738.161 553.195 738.457 552.621 739.05 552.22C739.642 551.819 740.544 551.6 741.757 551.563L743.049 551.509V551.051C743.049 550.404 742.91 549.95 742.632 549.69C742.354 549.431 741.962 549.301 741.456 549.301C741.064 549.301 740.69 549.358 740.335 549.472C739.979 549.586 739.642 549.72 739.323 549.875L738.974 549.014C739.312 548.84 739.699 548.692 740.137 548.569C740.574 548.446 741.034 548.385 741.517 548.385ZM743.035 552.309L741.893 552.356C740.959 552.393 740.301 552.546 739.918 552.814C739.535 553.083 739.344 553.464 739.344 553.956C739.344 554.384 739.473 554.701 739.733 554.906C739.993 555.111 740.337 555.214 740.765 555.214C741.431 555.214 741.975 555.029 742.399 554.66C742.823 554.291 743.035 553.737 743.035 552.999V552.309ZM748.978 552.165L746.387 548.508H747.686L749.662 551.393L751.63 548.508H752.916L750.325 552.165L753.059 556H751.76L749.662 552.944L747.549 556H746.264L748.978 552.165ZM758.025 548.385C758.918 548.385 759.581 548.585 760.014 548.986C760.447 549.387 760.663 550.028 760.663 550.907V556H759.836L759.618 554.893H759.563C759.353 555.166 759.135 555.396 758.907 555.583C758.679 555.765 758.414 555.904 758.114 556C757.817 556.091 757.453 556.137 757.02 556.137C756.564 556.137 756.159 556.057 755.803 555.897C755.452 555.738 755.174 555.496 754.969 555.173C754.769 554.849 754.668 554.439 754.668 553.942C754.668 553.195 754.965 552.621 755.557 552.22C756.149 551.819 757.052 551.6 758.264 551.563L759.556 551.509V551.051C759.556 550.404 759.417 549.95 759.139 549.69C758.861 549.431 758.469 549.301 757.963 549.301C757.571 549.301 757.198 549.358 756.842 549.472C756.487 549.586 756.149 549.72 755.83 549.875L755.482 549.014C755.819 548.84 756.206 548.692 756.644 548.569C757.081 548.446 757.542 548.385 758.025 548.385ZM759.542 552.309L758.401 552.356C757.467 552.393 756.808 552.546 756.425 552.814C756.042 553.083 755.851 553.464 755.851 553.956C755.851 554.384 755.981 554.701 756.241 554.906C756.5 555.111 756.844 555.214 757.273 555.214C757.938 555.214 758.483 555.029 758.907 554.66C759.33 554.291 759.542 553.737 759.542 552.999V552.309ZM769.321 556H768.165V549.458H765.889C765.798 550.638 765.682 551.65 765.54 552.493C765.404 553.332 765.23 554.018 765.021 554.551C764.816 555.079 764.565 555.469 764.269 555.72C763.977 555.966 763.628 556.089 763.223 556.089C763.1 556.089 762.984 556.082 762.874 556.068C762.765 556.055 762.671 556.032 762.594 556V555.139C762.653 555.157 762.715 555.171 762.779 555.18C762.847 555.189 762.918 555.193 762.99 555.193C763.196 555.193 763.382 555.109 763.551 554.94C763.724 554.767 763.879 554.507 764.016 554.161C764.157 553.815 764.282 553.377 764.392 552.849C764.501 552.315 764.597 551.689 764.679 550.969C764.765 550.244 764.841 549.424 764.904 548.508H769.321V556ZM773.493 548.508V553.218C773.493 553.309 773.491 553.427 773.486 553.573C773.482 553.715 773.475 553.867 773.466 554.031C773.457 554.191 773.448 554.346 773.438 554.496C773.434 554.642 773.427 554.763 773.418 554.858L777.506 548.508H778.9V556H777.841V551.406C777.841 551.26 777.843 551.074 777.848 550.846C777.852 550.618 777.859 550.395 777.868 550.176C777.877 549.952 777.884 549.779 777.889 549.656L773.814 556H772.413V548.508H773.493ZM783.155 548.508V551.652H787.332V548.508H788.467V556H787.332V552.616H783.155V556H782.013V548.508H783.155Z" fill="black"/>
</svg>
