<svg width="27" height="27" viewBox="0 0 27 27" fill="none" xmlns="http://www.w3.org/2000/svg">
<path fill-rule="evenodd" clip-rule="evenodd" d="M27 13.5C27 20.9554 20.9554 27 13.5 27C6.04463 27 0 20.9554 0 13.5C0 6.04463 6.04463 0 13.5 0C20.9554 0 27 6.04463 27 13.5ZM13.9838 9.96638C12.6709 10.512 10.0463 11.6426 6.111 13.3571C5.472 13.6114 5.13675 13.86 5.10638 14.103C5.05463 14.5148 5.56987 14.6768 6.26962 14.8961C6.36525 14.9265 6.46425 14.9569 6.5655 14.9906C7.25512 15.2145 8.18213 15.4766 8.66363 15.4867C9.10125 15.4957 9.5895 15.3158 10.1284 14.9468C13.8049 12.4639 15.7028 11.2095 15.822 11.1825C15.9064 11.1634 16.0234 11.1386 16.1021 11.2095C16.1809 11.2792 16.173 11.412 16.1651 11.448C16.1134 11.6651 14.0951 13.5428 13.0489 14.5148C12.7226 14.8174 12.492 15.0323 12.4448 15.0818C12.339 15.1909 12.231 15.2955 12.1275 15.3956C11.4862 16.0121 11.007 16.4756 12.1545 17.2316C12.7057 17.595 13.1467 17.8954 13.5866 18.1946C14.067 18.522 14.5463 18.8482 15.1673 19.2555C15.3248 19.359 15.4755 19.4659 15.6229 19.5705C16.182 19.9699 16.6849 20.3276 17.3059 20.2714C17.6659 20.2376 18.0394 19.899 18.2284 18.8876C18.675 16.4959 19.5547 11.3164 19.7584 9.18113C19.7708 9.00384 19.7632 8.82573 19.7359 8.65013C19.7195 8.5083 19.6504 8.3778 19.5424 8.2845C19.3815 8.15287 19.1318 8.12475 19.0193 8.127C18.5119 8.136 17.7334 8.40713 13.9838 9.96638V9.96638Z" fill="#162B29"/>
</svg>
