<svg width="27" height="27" viewBox="0 0 27 27" fill="none" xmlns="http://www.w3.org/2000/svg">
<g clip-path="url(#clip0_306_175)">
<path fill-rule="evenodd" clip-rule="evenodd" d="M26.3813 6.6915C26.568 6.07725 26.3813 5.625 25.4869 5.625H22.5338C21.7823 5.625 21.4357 6.01538 21.2479 6.44625C21.2479 6.44625 19.746 10.0417 17.6186 12.3772C16.9301 13.0545 16.6174 13.2694 16.2416 13.2694C16.0538 13.2694 15.7714 13.0545 15.7714 12.4391V6.6915C15.7714 5.9535 15.5644 5.625 14.9389 5.625H10.2949C9.82575 5.625 9.54337 5.967 9.54337 6.29212C9.54337 6.99075 10.6076 7.15275 10.7168 9.11925V13.392C10.7168 14.3291 10.5446 14.499 10.1689 14.499C9.16762 14.499 6.732 10.8866 5.28637 6.75337C5.00625 5.949 4.72275 5.625 3.96787 5.625H1.0125C0.16875 5.625 0 6.01538 0 6.44625C0 7.2135 1.00125 11.025 4.66312 16.0661C7.10438 19.5086 10.5412 21.375 13.6721 21.375C15.5497 21.375 15.7815 20.961 15.7815 20.2466V17.6445C15.7815 16.8154 15.9593 16.65 16.5544 16.65C16.9931 16.65 17.7435 16.866 19.4962 18.5254C21.4987 20.493 21.8284 21.375 22.9556 21.375H25.9088C26.7525 21.375 27.1755 20.961 26.9325 20.142C26.6648 19.3275 25.7085 18.1451 24.4406 16.7422C23.7521 15.9435 22.7194 15.0829 22.4055 14.652C21.9679 14.0996 22.0928 13.8532 22.4055 13.3616C22.4055 13.3616 26.0055 8.38237 26.3801 6.6915H26.3813Z" fill="#162B29"/>
</g>
<defs>
<clipPath id="clip0_306_175">
<rect width="27" height="27" fill="white"/>
</clipPath>
</defs>
</svg>
